<?xml version="1.0" encoding="utf-8"?>
<!-- Generator: Adobe Illustrator 16.0.3, SVG Export Plug-In . SVG Version: 6.00 Build 0)  -->
<!DOCTYPE svg PUBLIC "-//W3C//DTD SVG 1.1//EN" "http://www.w3.org/Graphics/SVG/1.1/DTD/svg11.dtd">
<svg version="1.1" id="Layer_1" xmlns="http://www.w3.org/2000/svg" xmlns:xlink="http://www.w3.org/1999/xlink" x="0px" y="0px"
	 width="199.576px" height="146.091px" viewBox="0 0 199.576 146.091" enable-background="new 0 0 199.576 146.091"
	 xml:space="preserve">
<g>
	<ellipse fill="#E6E6E6" cx="88.478" cy="138.492" rx="86.229" ry="6.444"/>
	<g>
		<path fill="none" d="M143.372,50.014c0.001,0,0.001-0.002,0.003-0.005c-0.457,0.688-0.911,1.38-1.409,2.036
			C142.464,51.391,142.914,50.7,143.372,50.014z"/>
		<path fill="none" d="M145.058,47.24c-0.109,0.197-0.222,0.391-0.333,0.585C144.838,47.633,144.947,47.438,145.058,47.24z"/>
		<path fill="none" d="M146.657,44.02c-0.188,0.428-0.376,0.854-0.578,1.272C146.281,44.874,146.468,44.445,146.657,44.02z"/>
		<path fill="none" d="M148.379,39.476c-0.312,1.032-0.677,2.039-1.068,3.035C147.704,41.518,148.067,40.508,148.379,39.476z"/>
		
			<linearGradient id="SVGID_1_" gradientUnits="userSpaceOnUse" x1="-250.9116" y1="-1.731" x2="-257.5738" y2="60.5604" gradientTransform="matrix(1 0 0 1 388.7207 0)">
			<stop  offset="0" style="stop-color:#F20D72"/>
			<stop  offset="0.2891" style="stop-color:#E11165"/>
			<stop  offset="0.6054" style="stop-color:#D7135D"/>
			<stop  offset="1" style="stop-color:#D4145A"/>
		</linearGradient>
		<path fill="url(#SVGID_1_)" d="M139.814,22.353c-0.354,3.991-1.08,7.875-2.137,11.62c-0.287,1.021-0.598,2.034-0.936,3.033
			c-0.508,1.507-1.051,2.996-1.666,4.449c-1.85,4.371-4.182,8.485-6.911,12.295c-3.757,5.246-8.282,9.904-13.425,13.798
			c6.596-0.746,12.701-3.094,17.922-6.656c3.557-2.43,6.699-5.421,9.304-8.847c0.498-0.656,0.952-1.348,1.409-2.036
			c0.475-0.71,0.92-1.442,1.35-2.184c0.111-0.194,0.224-0.388,0.333-0.585c0.357-0.639,0.698-1.29,1.021-1.948
			c0.202-0.418,0.39-0.845,0.578-1.272c0.225-0.5,0.451-0.998,0.653-1.509c0.392-0.996,0.757-2.003,1.068-3.035
			c0.23-0.766,0.434-1.54,0.618-2.322c0.485-2.055,0.813-4.169,0.964-6.332c0.07-0.949,0.117-1.905,0.117-2.872
			c0-2.135-0.175-4.229-0.497-6.274c-0.104-0.659-0.224-1.311-0.358-1.96c-1.479-7.035-4.81-13.39-9.465-18.525
			c-0.407,0.537-0.804,1.084-1.184,1.641c0.979,4.445,1.51,9.057,1.51,13.796C140.084,18.557,139.983,20.462,139.814,22.353z"/>
		<path fill="#F20D72" d="M133.277,36.566c-0.732-2.483-1.229-5.064-1.463-7.721c-1.729,2.14-3.092,4.58-4.036,7.223
			c-0.737,2.067-1.207,4.255-1.37,6.533c2.452-1.624,4.826-3.356,7.129-5.178C133.446,37.14,133.361,36.854,133.277,36.566z"/>
		
			<linearGradient id="SVGID_2_" gradientUnits="userSpaceOnUse" x1="-215.125" y1="63.9775" x2="-228.4495" y2="34.6635" gradientTransform="matrix(1 0 0 1 388.7207 0)">
			<stop  offset="0" style="stop-color:#45C480"/>
			<stop  offset="0.0901" style="stop-color:#37BF86"/>
			<stop  offset="0.2908" style="stop-color:#1FB590"/>
			<stop  offset="0.5022" style="stop-color:#0EAE97"/>
			<stop  offset="0.7293" style="stop-color:#03AA9C"/>
			<stop  offset="1" style="stop-color:#00A99D"/>
		</linearGradient>
		<path fill="url(#SVGID_2_)" d="M171.846,49.07c-7.115-3.99-14.751-7.162-22.779-9.398c0.658,8.417,5.516,15.648,12.493,19.598
			c2.151,1.219,4.497,2.129,6.985,2.658c1.673,0.355,3.404,0.554,5.186,0.554c4.646,0,8.979-1.305,12.693-3.532
			c-3.633-2.94-7.457-5.654-11.471-8.092C173.933,50.238,172.89,49.655,171.846,49.07z"/>
		
			<linearGradient id="SVGID_3_" gradientUnits="userSpaceOnUse" x1="716.1641" y1="20.127" x2="724.6006" y2="20.127" gradientTransform="matrix(-1 0 0 1 856.248 0)">
			<stop  offset="0" style="stop-color:#7B0CB1"/>
			<stop  offset="0.0503" style="stop-color:#7C0FB5"/>
			<stop  offset="0.3247" style="stop-color:#801BC6"/>
			<stop  offset="0.6254" style="stop-color:#8223D0"/>
			<stop  offset="1" style="stop-color:#8325D3"/>
		</linearGradient>
		<path fill="url(#SVGID_3_)" d="M133.537,37.424c0.301-0.237,0.604-0.47,0.902-0.71c1.102-0.89,2.178-1.808,3.238-2.741
			c1.057-3.745,1.783-7.629,2.137-11.62c0.169-1.891,0.27-3.796,0.27-5.727c0-4.739-0.531-9.351-1.51-13.796
			c-4.368,6.396-6.927,14.125-6.927,22.455c0,1.199,0.062,2.387,0.167,3.561c0.234,2.656,0.73,5.237,1.463,7.721
			C133.361,36.854,133.446,37.14,133.537,37.424z"/>
		
			<linearGradient id="SVGID_4_" gradientUnits="userSpaceOnUse" x1="-199.0605" y1="1.3188" x2="-190.352" y2="39.1218" gradientTransform="matrix(1 0 0 1 388.7207 0)">
			<stop  offset="0" style="stop-color:#21A9B4"/>
			<stop  offset="0.0901" style="stop-color:#40B3B0"/>
			<stop  offset="0.2177" style="stop-color:#65BFAC"/>
			<stop  offset="0.3513" style="stop-color:#84C9A8"/>
			<stop  offset="0.4907" style="stop-color:#9CD1A5"/>
			<stop  offset="0.6382" style="stop-color:#ADD7A3"/>
			<stop  offset="0.7993" style="stop-color:#B7DAA1"/>
			<stop  offset="1" style="stop-color:#BADBA1"/>
		</linearGradient>
		<path fill="url(#SVGID_4_)" d="M196.38,34.773c0.608-0.236,1.206-0.496,1.794-0.777C197.586,34.277,196.988,34.537,196.38,34.773z
			"/>
		<path fill="#21A9B4" d="M190.267,36.251L190.267,36.251c1.659-0.266,3.938-0.766,5.766-1.478
			C194.205,35.482,191.926,35.984,190.267,36.251z"/>
		
			<linearGradient id="SVGID_5_" gradientUnits="userSpaceOnUse" x1="657.7588" y1="37.8462" x2="665.6348" y2="37.8462" gradientTransform="matrix(-1 0 0 1 856.248 0)">
			<stop  offset="0" style="stop-color:#7B0CB1"/>
			<stop  offset="0.0503" style="stop-color:#7C0FB5"/>
			<stop  offset="0.3247" style="stop-color:#801BC6"/>
			<stop  offset="0.6254" style="stop-color:#8223D0"/>
			<stop  offset="1" style="stop-color:#8325D3"/>
		</linearGradient>
		<path fill="url(#SVGID_5_)" d="M198.174,33.996c-0.588,0.281-1.186,0.541-1.794,0.777c-1.83,0.712-3.759,1.212-5.767,1.479
			c0.926,3.04,3.678,5.276,6.984,5.444c0.19-0.08,0.389-0.156,0.581-0.241c0.184-1.221,0.311-2.46,0.311-3.732
			C198.489,36.451,198.359,35.213,198.174,33.996z"/>
		<g>
			<path fill="#F20D72" d="M197.598,41.696c-3.307-0.168-6.059-2.404-6.984-5.444c-0.049,0.006-0.094,0.016-0.143,0.021
				c-1.05,0.134-2.11,0.226-3.193,0.226c-5.691,0-10.929-1.91-15.148-5.094c-1.643-2.659-3.765-4.986-6.26-6.851
				c-1.756-1.314-3.697-2.398-5.773-3.212c-1.235-0.484-2.511-0.886-3.833-1.167c-1.638-0.348-3.335-0.539-5.072-0.546
				c-0.038,0-0.073-0.008-0.112-0.008c-0.627,0-1.241,0.05-1.855,0.093c0.135,0.649,0.255,1.301,0.358,1.96
				c0.322,2.046,0.497,4.14,0.497,6.274c0,0.967-0.047,1.923-0.117,2.872c-0.151,2.163-0.479,4.277-0.964,6.332
				c-0.005,0.192-0.028,0.376-0.028,0.569c0,0.657,0.048,1.303,0.098,1.949c8.028,2.236,15.664,5.408,22.779,9.398
				c1.044,0.585,2.087,1.168,3.107,1.787c4.014,2.438,7.838,5.151,11.471,8.092c6.2-3.715,10.627-10.054,11.755-17.494
				C197.986,41.54,197.788,41.616,197.598,41.696z M162.595,35.424c-1.438,0-5.407-4.027-5.407-4.027s3.969-1.166,5.407-1.166
				c1.435,0,2.593,1.159,2.593,2.596C165.188,34.261,164.029,35.424,162.595,35.424z"/>
			<path fill="#F20D72" d="M162.595,30.23c-1.438,0-5.407,1.166-5.407,1.166s3.969,4.027,5.407,4.027
				c1.435,0,2.593-1.163,2.593-2.598C165.188,31.39,164.029,30.23,162.595,30.23z M162.757,34.65c-1.181,0-4.437-3.304-4.437-3.304
				s3.256-0.956,4.437-0.956c1.177,0,2.128,0.951,2.128,2.129S163.934,34.65,162.757,34.65z"/>
			<path fill="#FFFFFF" d="M162.595,30.23c-1.438,0-5.407,1.166-5.407,1.166s3.969,4.027,5.407,4.027
				c1.435,0,2.593-1.163,2.593-2.598C165.188,31.39,164.029,30.23,162.595,30.23z"/>
		</g>
		
			<linearGradient id="SVGID_6_" gradientUnits="userSpaceOnUse" x1="-245.3486" y1="48.3018" x2="-227.1611" y2="48.3018" gradientTransform="matrix(1 0 0 1 388.7207 0)">
			<stop  offset="0" style="stop-color:#7B0CB1"/>
			<stop  offset="0.0503" style="stop-color:#7C0FB5"/>
			<stop  offset="0.3247" style="stop-color:#801BC6"/>
			<stop  offset="0.6254" style="stop-color:#8223D0"/>
			<stop  offset="1" style="stop-color:#8325D3"/>
		</linearGradient>
		<path fill="url(#SVGID_6_)" d="M149.066,39.672c-0.05-0.646-0.098-1.292-0.098-1.949c0-0.193,0.023-0.377,0.028-0.569
			c-0.185,0.782-0.388,1.557-0.618,2.322c-0.312,1.032-0.675,2.042-1.068,3.035c-0.201,0.514-0.432,1.007-0.653,1.509
			c-0.189,0.426-0.376,0.854-0.578,1.272c-0.323,0.661-0.667,1.307-1.021,1.948c-0.11,0.197-0.22,0.393-0.333,0.585
			c-0.43,0.743-0.875,1.473-1.35,2.184c-0.002,0.003-0.002,0.005-0.003,0.005c6.479,2.315,12.534,5.511,18.036,9.437
			c0.051-0.059,0.098-0.121,0.151-0.181C154.582,55.32,149.725,48.089,149.066,39.672z"/>
		
			<linearGradient id="SVGID_7_" gradientUnits="userSpaceOnUse" x1="-238.168" y1="-0.3364" x2="-244.8257" y2="61.9132" gradientTransform="matrix(1 0 0 1 388.7207 0)">
			<stop  offset="0" style="stop-color:#21A9B4"/>
			<stop  offset="0.0548" style="stop-color:#40B3B0"/>
			<stop  offset="0.1322" style="stop-color:#65BFAC"/>
			<stop  offset="0.2134" style="stop-color:#84C9A8"/>
			<stop  offset="0.2981" style="stop-color:#9CD1A5"/>
			<stop  offset="0.3877" style="stop-color:#ADD7A3"/>
			<stop  offset="0.4856" style="stop-color:#B7DAA1"/>
			<stop  offset="0.6075" style="stop-color:#BADBA1"/>
			<stop  offset="0.9677" style="stop-color:#21A9B4"/>
		</linearGradient>
		<path fill="url(#SVGID_7_)" d="M146.079,45.292c-0.323,0.658-0.664,1.31-1.021,1.948
			C145.412,46.599,145.756,45.953,146.079,45.292z"/>
		
			<linearGradient id="SVGID_8_" gradientUnits="userSpaceOnUse" x1="-245.3516" y1="46.2661" x2="-227.1291" y2="46.2661" gradientTransform="matrix(1 0 0 1 388.7207 0)">
			<stop  offset="0" style="stop-color:#21A9B4"/>
			<stop  offset="0.6075" style="stop-color:#BADBA1"/>
		</linearGradient>
		<path fill="url(#SVGID_8_)" d="M146.079,45.292c-0.323,0.658-0.664,1.31-1.021,1.948
			C145.412,46.599,145.756,45.953,146.079,45.292z"/>
		
			<linearGradient id="SVGID_9_" gradientUnits="userSpaceOnUse" x1="-237.0854" y1="-0.2271" x2="-243.7439" y2="62.0294" gradientTransform="matrix(1 0 0 1 388.7207 0)">
			<stop  offset="0" style="stop-color:#21A9B4"/>
			<stop  offset="0.0548" style="stop-color:#40B3B0"/>
			<stop  offset="0.1322" style="stop-color:#65BFAC"/>
			<stop  offset="0.2134" style="stop-color:#84C9A8"/>
			<stop  offset="0.2981" style="stop-color:#9CD1A5"/>
			<stop  offset="0.3877" style="stop-color:#ADD7A3"/>
			<stop  offset="0.4856" style="stop-color:#B7DAA1"/>
			<stop  offset="0.6075" style="stop-color:#BADBA1"/>
			<stop  offset="0.9677" style="stop-color:#21A9B4"/>
		</linearGradient>
		<path fill="url(#SVGID_9_)" d="M147.311,42.511c-0.202,0.511-0.429,1.009-0.653,1.509
			C146.879,43.518,147.109,43.024,147.311,42.511z"/>
		
			<linearGradient id="SVGID_10_" gradientUnits="userSpaceOnUse" x1="-245.3496" y1="43.2651" x2="-227.1595" y2="43.2651" gradientTransform="matrix(1 0 0 1 388.7207 0)">
			<stop  offset="0" style="stop-color:#21A9B4"/>
			<stop  offset="0.6075" style="stop-color:#BADBA1"/>
		</linearGradient>
		<path fill="url(#SVGID_10_)" d="M147.311,42.511c-0.202,0.511-0.429,1.009-0.653,1.509
			C146.879,43.518,147.109,43.024,147.311,42.511z"/>
		
			<linearGradient id="SVGID_11_" gradientUnits="userSpaceOnUse" x1="-239.3867" y1="-0.498" x2="-246.0488" y2="61.792" gradientTransform="matrix(1 0 0 1 388.7207 0)">
			<stop  offset="0" style="stop-color:#21A9B4"/>
			<stop  offset="0.0548" style="stop-color:#40B3B0"/>
			<stop  offset="0.1322" style="stop-color:#65BFAC"/>
			<stop  offset="0.2134" style="stop-color:#84C9A8"/>
			<stop  offset="0.2981" style="stop-color:#9CD1A5"/>
			<stop  offset="0.3877" style="stop-color:#ADD7A3"/>
			<stop  offset="0.4856" style="stop-color:#B7DAA1"/>
			<stop  offset="0.6075" style="stop-color:#BADBA1"/>
			<stop  offset="0.9677" style="stop-color:#21A9B4"/>
		</linearGradient>
		<path fill="url(#SVGID_11_)" d="M144.725,47.825c-0.43,0.741-0.875,1.474-1.35,2.184C143.85,49.298,144.295,48.568,144.725,47.825
			z"/>
		
			<linearGradient id="SVGID_12_" gradientUnits="userSpaceOnUse" x1="-245.3481" y1="48.917" x2="-227.1577" y2="48.917" gradientTransform="matrix(1 0 0 1 388.7207 0)">
			<stop  offset="0" style="stop-color:#21A9B4"/>
			<stop  offset="0.6075" style="stop-color:#BADBA1"/>
		</linearGradient>
		<path fill="url(#SVGID_12_)" d="M144.725,47.825c-0.43,0.741-0.875,1.474-1.35,2.184C143.85,49.298,144.295,48.568,144.725,47.825
			z"/>
		
			<linearGradient id="SVGID_13_" gradientUnits="userSpaceOnUse" x1="800.458" y1="59.4526" x2="835.7617" y2="59.4526" gradientTransform="matrix(-1 0 0 1 856.248 0)">
			<stop  offset="0" style="stop-color:#45C480"/>
			<stop  offset="0.0901" style="stop-color:#37BF86"/>
			<stop  offset="0.2908" style="stop-color:#1FB590"/>
			<stop  offset="0.5022" style="stop-color:#0EAE97"/>
			<stop  offset="0.7293" style="stop-color:#03AA9C"/>
			<stop  offset="1" style="stop-color:#00A99D"/>
		</linearGradient>
		<path fill="url(#SVGID_13_)" d="M55.79,58.935c-12.613-1.618-24.521-5.483-35.303-11.202c5.382,9.617,13.168,17.712,22.563,23.44
			C46.946,66.743,51.204,62.646,55.79,58.935z"/>
		
			<linearGradient id="SVGID_14_" gradientUnits="userSpaceOnUse" x1="-345.6704" y1="57.2217" x2="-251.043" y2="57.2217" gradientTransform="matrix(1 0 0 1 388.7207 0)">
			<stop  offset="0" style="stop-color:#7B0CB1"/>
			<stop  offset="0.0503" style="stop-color:#7C0FB5"/>
			<stop  offset="0.3247" style="stop-color:#801BC6"/>
			<stop  offset="0.6254" style="stop-color:#8223D0"/>
			<stop  offset="1" style="stop-color:#8325D3"/>
		</linearGradient>
		<path fill="url(#SVGID_14_)" d="M114.74,67.548c5.143-3.894,9.668-8.552,13.425-13.798c2.729-3.81,5.062-7.924,6.911-12.295
			c0.615-1.453,1.158-2.942,1.666-4.449c0.338-0.999,0.648-2.012,0.936-3.033c-1.061,0.934-2.137,1.852-3.238,2.741
			c-0.299,0.24-0.602,0.473-0.902,0.71c-2.303,1.821-4.677,3.554-7.129,5.178C114.111,50.74,99.995,56.345,84.784,58.64
			c-5.106,0.773-10.332,1.177-15.65,1.177c-4.524,0-8.971-0.32-13.344-0.882c-4.586,3.711-8.844,7.809-12.74,12.238
			c9.672,5.897,21.032,9.298,33.189,9.298C90.702,80.471,104.037,75.654,114.74,67.548z"/>
		
			<linearGradient id="SVGID_15_" gradientUnits="userSpaceOnUse" x1="-371.563" y1="95.1855" x2="-227.3125" y2="95.1855" gradientTransform="matrix(1 0 0 1 388.7207 0)">
			<stop  offset="0" style="stop-color:#41C5EB"/>
			<stop  offset="0.2455" style="stop-color:#35B8E7"/>
			<stop  offset="0.5813" style="stop-color:#2CAEE3"/>
			<stop  offset="1" style="stop-color:#29ABE2"/>
		</linearGradient>
		<path fill="url(#SVGID_15_)" d="M141.966,52.045c-2.604,3.426-5.747,6.417-9.304,8.847c-5.221,3.563-11.326,5.91-17.922,6.656
			c-10.703,8.106-24.039,12.923-38.5,12.923c-12.157,0-23.517-3.4-33.189-9.298c-15.365,17.469-26.985,41.041-25.811,69.124
			c4.022-2.576,8.158-3.541,13.381-3.764c1.579-0.068,3.655-0.158,5.155,0.111c0.993-21.132,18.421-37.012,39.798-37.012
			C97.102,99.633,114.637,115,115.4,139h20.782c-0.271-5-0.427-7.133-0.427-10.28c0-21.834,6.747-42.562,18.254-59.29
			c1.411-2.056,2.906-4.292,4.463-6.239c0.952-1.19,1.935-2.476,2.936-3.622c-5.502-3.925-11.558-7.182-18.036-9.494
			C142.914,50.758,142.464,51.391,141.966,52.045z"/>
		<circle fill="#121332" cx="162.804" cy="33.52" r="1.577"/>
	</g>
</g>
</svg>
