<?xml version="1.0" standalone="no"?>
<svg viewBox="0 0 200 250" xmlns="http://www.w3.org/2000/svg">
  <path fill="#DDE9EE" d="M45.8,-71.3C60.7,-61.7,75.1,-51.3,80.2,-37.4C85.2,-23.6,81,-6.3,78.1,11C75.2,28.2,73.8,45.4,65.5,59.2C57.3,72.9,42.4,83.2,26.6,85.6C10.8,88,-5.9,82.5,-22.9,77.7C-39.9,72.9,-57.2,68.7,-66,57.7C-74.9,46.7,-75.3,28.8,-77.6,11.3C-79.9,-6.2,-84.1,-23.2,-80.4,-39C-76.7,-54.7,-65.2,-69.1,-50.5,-78.8C-35.8,-88.5,-17.9,-93.5,-1.2,-91.6C15.4,-89.7,30.9,-80.9,45.8,-71.3Z" transform="translate(100 100)" />
</svg>
