<?xml version="1.0" encoding="utf-8"?>
<!-- Generator: Adobe Illustrator 16.0.3, SVG Export Plug-In . SVG Version: 6.00 Build 0)  -->
<!DOCTYPE svg PUBLIC "-//W3C//DTD SVG 1.1//EN" "http://www.w3.org/Graphics/SVG/1.1/DTD/svg11.dtd">
<svg version="1.1" id="Layer_1" xmlns="http://www.w3.org/2000/svg" xmlns:xlink="http://www.w3.org/1999/xlink" x="0px" y="0px"
	 width="199.576px" height="279.424px" viewBox="0 0 199.576 279.424" enable-background="new 0 0 199.576 279.424"
	 xml:space="preserve">
<g>
	<ellipse fill="#E6E6E6" cx="133.401" cy="162.668" rx="37.286" ry="2.787"/>
	<g>
		<path fill="#121332" d="M140.732,126.671c-10.654,0-19.581,7.366-21.981,17.282c-0.413,1.713-0.638,3.496-0.638,5.337
			c0,4.855,1.536,9.35,4.14,13.033c0-0.061-0.006-0.118-0.006-0.175c0-7.534,3.689-14.205,9.354-18.316
			c2.455-0.741,4.731-1.882,6.76-3.348c4.282-3.09,7.457-7.617,8.808-12.879C145.131,127,142.97,126.671,140.732,126.671z"/>
		<path fill="#121332" d="M145.04,126.674c-10.654,0-19.581,7.365-21.982,17.282c-0.413,1.712-0.638,3.496-0.638,5.335
			c0,4.857,1.535,9.352,4.139,13.034c0-0.06-0.006-0.117-0.006-0.174c0-7.536,3.689-14.206,9.355-18.317
			c2.454-0.74,4.732-1.883,6.759-3.348c4.283-3.089,7.458-7.616,8.809-12.879C149.438,127.003,147.276,126.674,145.04,126.674z"/>
		<g>
			<path fill="none" d="M136.309,56.537c-0.922,5.544-3.006,10.693-6,15.19C133.84,67.604,136.058,62.327,136.309,56.537z"/>
			<path opacity="0.5" fill="#121332" d="M34.161,113.446c0.42,0.744,0.85,1.479,1.294,2.206c0.133-0.131,0.268-0.262,0.401-0.393
				C35.281,114.665,34.716,114.062,34.161,113.446z"/>
			<path opacity="0.5" fill="#121332" d="M139.112,117.594c5.288,1.89,10.327,4.301,15.051,7.181
				c3.422-4.046,6.411-8.467,8.902-13.193c-3.731-3.222-7.72-6.153-11.929-8.768C147.777,108.253,143.729,113.221,139.112,117.594z"
				/>
			<path opacity="0.5" fill="#121332" d="M116.565,132.193c1.485-0.091,2.981-0.144,4.49-0.144c7.662,0,15.047,1.192,21.982,3.393
				c4.071-3.157,7.801-6.736,11.125-10.668c-4.724-2.88-9.763-5.291-15.051-7.181C132.609,123.752,124.98,128.731,116.565,132.193z"
				/>
			<path opacity="0.5" fill="#121332" d="M116.565,132.193c1.485-0.091,2.981-0.144,4.49-0.144c7.662,0,15.047,1.192,21.982,3.393
				c4.071-3.157,7.801-6.736,11.125-10.668c-4.724-2.88-9.763-5.291-15.051-7.181C132.609,123.752,124.98,128.731,116.565,132.193z"
				/>
			<path opacity="0.5" fill="#121332" d="M116.565,132.193c-7.236,2.979-15.054,4.831-23.236,5.346
				c-6.157,2.546-11.89,5.912-17.056,9.967c6.896,2.145,14.228,3.301,21.831,3.301c5.055,0,9.991-0.51,14.759-1.484
				c7.725-7.479,17.975-12.364,29.349-13.248c0.278-0.208,0.551-0.42,0.826-0.632c-6.936-2.2-14.32-3.393-21.982-3.393
				C119.547,132.05,118.051,132.103,116.565,132.193z"/>
			<path opacity="0.5" fill="#121332" d="M116.565,132.193c-7.236,2.979-15.054,4.831-23.236,5.346
				c-6.157,2.546-11.89,5.912-17.056,9.967c6.896,2.145,14.228,3.301,21.831,3.301c5.055,0,9.991-0.51,14.759-1.484
				c7.725-7.479,17.975-12.364,29.349-13.248c0.278-0.208,0.551-0.42,0.826-0.632c-6.936-2.2-14.32-3.393-21.982-3.393
				C119.547,132.05,118.051,132.103,116.565,132.193z"/>
			<path opacity="0.5" fill="#121332" d="M116.565,132.193c-7.236,2.979-15.054,4.831-23.236,5.346
				c-6.157,2.546-11.89,5.912-17.056,9.967c6.896,2.145,14.228,3.301,21.831,3.301c5.055,0,9.991-0.51,14.759-1.484
				c7.725-7.479,17.975-12.364,29.349-13.248c0.278-0.208,0.551-0.42,0.826-0.632c-6.936-2.2-14.32-3.393-21.982-3.393
				C119.547,132.05,118.051,132.103,116.565,132.193z"/>
			<path opacity="0.5" fill="#121332" d="M149.896,25.441c1.811,3.001,2.852,6.519,2.852,10.278c0,9.756-7.007,17.869-16.261,19.599
				c-0.056,0.408-0.111,0.815-0.179,1.219c-0.251,5.79-2.469,11.067-6,15.19c-5.923,8.896-15.387,15.229-26.383,16.986
				c17.3,0.443,33.438,5.547,47.211,14.1c6.915-11.193,10.909-24.383,10.909-38.507c0-13.093-3.433-25.381-9.442-36.023
				C151.728,27.313,150.823,26.365,149.896,25.441z"/>
			<path opacity="0.5" fill="#121332" d="M54.076,136.136c1.646-1.603,3.354-3.141,5.129-4.602
				c-8.827-3.874-16.746-9.433-23.349-16.274c-0.134,0.131-0.269,0.262-0.401,0.393C40.317,123.604,46.65,130.559,54.076,136.136z"
				/>
			<path opacity="0.5" fill="#121332" d="M139.112,117.594c4.617-4.373,8.665-9.341,12.024-14.78
				c-13.773-8.553-29.911-13.656-47.211-14.1c-2.027,0.323-4.105,0.498-6.224,0.498c-1.366,0-2.716-0.071-4.046-0.208
				c-22.397,1.838-42.577,11.503-57.8,26.256c6.603,6.842,14.521,12.4,23.349,16.274c14.203-11.696,32.396-18.722,52.231-18.722
				C121.148,112.813,130.465,114.502,139.112,117.594z"/>
			<path opacity="0.5" fill="#121332" d="M139.112,117.594c4.617-4.373,8.665-9.341,12.024-14.78
				c-13.773-8.553-29.911-13.656-47.211-14.1c-2.027,0.323-4.105,0.498-6.224,0.498c-1.366,0-2.716-0.071-4.046-0.208
				c-22.397,1.838-42.577,11.503-57.8,26.256c6.603,6.842,14.521,12.4,23.349,16.274c14.203-11.696,32.396-18.722,52.231-18.722
				C121.148,112.813,130.465,114.502,139.112,117.594z"/>
			<g>
				<linearGradient id="SVGID_1_" gradientUnits="userSpaceOnUse" x1="7.1816" y1="196.4521" x2="106.6387" y2="196.4521">
					<stop  offset="0" style="stop-color:#7B0CB1"/>
					<stop  offset="0.0503" style="stop-color:#7C0FB5"/>
					<stop  offset="0.3247" style="stop-color:#801BC6"/>
					<stop  offset="0.6254" style="stop-color:#8223D0"/>
					<stop  offset="1" style="stop-color:#8325D3"/>
				</linearGradient>
				<path fill="url(#SVGID_1_)" d="M29.218,195.032c0-23.095,9.526-43.962,24.858-58.896c-7.426-5.577-13.759-12.531-18.621-20.483
					C18.01,132.764,7.182,156.599,7.182,182.964c0,52.073,42.214,94.288,94.286,94.288c1.735,0,3.458-0.051,5.171-0.143
					C63.464,274.624,29.218,238.83,29.218,195.032z"/>
				<linearGradient id="SVGID_2_" gradientUnits="userSpaceOnUse" x1="35.8564" y1="110.124" x2="151.1367" y2="110.124">
					<stop  offset="0" style="stop-color:#7B0CB1"/>
					<stop  offset="0.0503" style="stop-color:#7C0FB5"/>
					<stop  offset="0.3247" style="stop-color:#801BC6"/>
					<stop  offset="0.6254" style="stop-color:#8223D0"/>
					<stop  offset="1" style="stop-color:#8325D3"/>
				</linearGradient>
				<path fill="url(#SVGID_2_)" d="M103.926,88.714c-2.027,0.323-4.105,0.498-6.224,0.498c-1.366,0-2.716-0.071-4.046-0.208
					c-22.397,1.838-42.577,11.503-57.8,26.256c6.603,6.842,14.521,12.4,23.349,16.274c14.203-11.696,32.396-18.722,52.231-18.722
					c9.712,0,19.028,1.689,27.676,4.781c4.617-4.373,8.665-9.341,12.024-14.78C137.363,94.261,121.226,89.157,103.926,88.714z"/>
			</g>
			<path opacity="0.5" fill="#121332" d="M48.456,204.65c0-23.197,10.88-43.855,27.817-57.145
				c-8.089-2.518-15.577-6.398-22.197-11.37c-15.332,14.935-24.858,35.802-24.858,58.896c0,43.798,34.246,79.592,77.421,82.077
				c1.761-0.097,3.509-0.243,5.241-0.433C76.117,272.167,48.456,241.639,48.456,204.65z"/>
			<path fill="#F20D72" d="M48.456,204.65c0-23.197,10.88-43.855,27.817-57.145c-8.089-2.518-15.577-6.398-22.197-11.37
				c-15.332,14.935-24.858,35.802-24.858,58.896c0,43.798,34.246,79.592,77.421,82.077c1.761-0.097,3.509-0.243,5.241-0.433
				C76.117,272.167,48.456,241.639,48.456,204.65z"/>
			<path opacity="0.5" fill="#121332" d="M88.661,137.69c-10.478,0-20.439-2.2-29.456-6.156c-1.774,1.461-3.483,2.999-5.129,4.602
				c6.62,4.972,14.108,8.853,22.197,11.37c5.166-4.055,10.898-7.421,17.056-9.967C91.784,137.636,90.23,137.69,88.661,137.69z"/>
			<path opacity="0.5" fill="#121332" d="M88.661,137.69c-10.478,0-20.439-2.2-29.456-6.156c-1.774,1.461-3.483,2.999-5.129,4.602
				c6.62,4.972,14.108,8.853,22.197,11.37c5.166-4.055,10.898-7.421,17.056-9.967C91.784,137.636,90.23,137.69,88.661,137.69z"/>
			<path opacity="0.5" fill="#121332" d="M93.329,137.539c7.231-2.992,15.05-4.847,23.236-5.346
				c8.415-3.462,16.044-8.441,22.547-14.6c-8.647-3.092-17.964-4.781-27.676-4.781c-19.835,0-38.028,7.025-52.231,18.722
				c9.017,3.956,18.979,6.156,29.456,6.156C90.23,137.69,91.784,137.636,93.329,137.539z"/>
			<path opacity="0.5" fill="#121332" d="M93.329,137.539c7.231-2.992,15.05-4.847,23.236-5.346
				c8.415-3.462,16.044-8.441,22.547-14.6c-8.647-3.092-17.964-4.781-27.676-4.781c-19.835,0-38.028,7.025-52.231,18.722
				c9.017,3.956,18.979,6.156,29.456,6.156C90.23,137.69,91.784,137.636,93.329,137.539z"/>
			<path opacity="0.5" fill="#121332" d="M93.329,137.539c7.231-2.992,15.05-4.847,23.236-5.346
				c8.415-3.462,16.044-8.441,22.547-14.6c-8.647-3.092-17.964-4.781-27.676-4.781c-19.835,0-38.028,7.025-52.231,18.722
				c9.017,3.956,18.979,6.156,29.456,6.156C90.23,137.69,91.784,137.636,93.329,137.539z"/>
			<path fill="#F20D72" d="M93.329,137.539c7.231-2.992,15.05-4.847,23.236-5.346c8.415-3.462,16.044-8.441,22.547-14.6
				c-8.647-3.092-17.964-4.781-27.676-4.781c-19.835,0-38.028,7.025-52.231,18.722c9.017,3.956,18.979,6.156,29.456,6.156
				C90.23,137.69,91.784,137.636,93.329,137.539z"/>
			<path opacity="0.5" fill="#121332" d="M116.565,132.193c-8.187,0.499-16.005,2.354-23.236,5.346
				C101.512,137.024,109.329,135.172,116.565,132.193z"/>
			<path opacity="0.5" fill="#121332" d="M116.565,132.193c-8.187,0.499-16.005,2.354-23.236,5.346
				C101.512,137.024,109.329,135.172,116.565,132.193z"/>
			<path opacity="0.5" fill="#121332" d="M116.565,132.193c-8.187,0.499-16.005,2.354-23.236,5.346
				C101.512,137.024,109.329,135.172,116.565,132.193z"/>
			<path opacity="0.5" fill="#121332" d="M116.565,132.193c-8.187,0.499-16.005,2.354-23.236,5.346
				C101.512,137.024,109.329,135.172,116.565,132.193z"/>
			<path opacity="0.5" fill="#121332" d="M116.565,132.193c-8.187,0.499-16.005,2.354-23.236,5.346
				C101.512,137.024,109.329,135.172,116.565,132.193z"/>
			<path opacity="0.5" fill="#121332" d="M142.212,136.074c-11.374,0.884-21.624,5.77-29.349,13.248
				C123.709,147.107,133.683,142.5,142.212,136.074z"/>
			<path opacity="0.5" fill="#121332" d="M142.212,136.074c-11.374,0.884-21.624,5.77-29.349,13.248
				C123.709,147.107,133.683,142.5,142.212,136.074z"/>
			<path opacity="0.5" fill="#121332" d="M142.212,136.074c-11.374,0.884-21.624,5.77-29.349,13.248
				C123.709,147.107,133.683,142.5,142.212,136.074z"/>
			<path opacity="0.5" fill="#121332" d="M142.212,136.074c-11.374,0.884-21.624,5.77-29.349,13.248
				C123.709,147.107,133.683,142.5,142.212,136.074z"/>
			<linearGradient id="SVGID_3_" gradientUnits="userSpaceOnUse" x1="35.4551" y1="89.5449" x2="171.4883" y2="89.5449">
				<stop  offset="0" style="stop-color:#41C5EB"/>
				<stop  offset="0.2455" style="stop-color:#35B8E7"/>
				<stop  offset="0.5813" style="stop-color:#2CAEE3"/>
				<stop  offset="1" style="stop-color:#29ABE2"/>
			</linearGradient>
			<path fill="url(#SVGID_3_)" d="M152.604,28.283c6.01,10.643,9.442,22.931,9.442,36.023c0,14.124-3.994,27.313-10.909,38.507
				c-3.359,5.439-7.407,10.407-12.024,14.78c-6.503,6.158-14.132,11.138-22.547,14.6c-7.236,2.979-15.054,4.831-23.236,5.346
				c-1.545,0.097-3.099,0.151-4.668,0.151c-10.478,0-20.439-2.2-29.456-6.156c-8.827-3.874-16.746-9.433-23.349-16.274
				c-0.134,0.131-0.269,0.262-0.401,0.393c4.862,7.952,11.195,14.906,18.621,20.483c6.62,4.972,14.108,8.853,22.197,11.37
				c6.896,2.145,14.228,3.301,21.831,3.301c5.055,0,9.991-0.51,14.759-1.484c10.846-2.215,20.819-6.822,29.349-13.248
				c0.278-0.208,0.551-0.42,0.826-0.632c4.071-3.157,7.801-6.736,11.125-10.668c3.422-4.046,6.411-8.467,8.902-13.193
				c5.376-10.202,8.423-21.823,8.423-34.158C171.488,58.522,164.341,41.292,152.604,28.283z"/>
			<path opacity="0.5" fill="#121332" d="M103.926,88.714c-0.816-0.021-1.637-0.036-2.458-0.036c-2.632,0-5.234,0.114-7.812,0.326
				c1.33,0.137,2.68,0.208,4.046,0.208C99.82,89.212,101.898,89.037,103.926,88.714z"/>
			<path opacity="0.5" fill="#121332" d="M103.926,88.714c-0.816-0.021-1.637-0.036-2.458-0.036c-2.632,0-5.234,0.114-7.812,0.326
				c1.33,0.137,2.68,0.208,4.046,0.208C99.82,89.212,101.898,89.037,103.926,88.714z"/>
			<path opacity="0.5" fill="#121332" d="M103.926,88.714c-0.816-0.021-1.637-0.036-2.458-0.036c-2.632,0-5.234,0.114-7.812,0.326
				c1.33,0.137,2.68,0.208,4.046,0.208C99.82,89.212,101.898,89.037,103.926,88.714z"/>
			<path opacity="0.3" fill="#00FFFF" d="M103.926,88.714c-0.816-0.021-1.637-0.036-2.458-0.036c-2.632,0-5.234,0.114-7.812,0.326
				c1.33,0.137,2.68,0.208,4.046,0.208C99.82,89.212,101.898,89.037,103.926,88.714z"/>
			<linearGradient id="SVGID_4_" gradientUnits="userSpaceOnUse" x1="112.8633" y1="37.4063" x2="136.8516" y2="37.4063">
				<stop  offset="0" style="stop-color:#7B0CB1"/>
				<stop  offset="0.0503" style="stop-color:#7C0FB5"/>
				<stop  offset="0.3247" style="stop-color:#801BC6"/>
				<stop  offset="0.6254" style="stop-color:#8223D0"/>
				<stop  offset="1" style="stop-color:#8325D3"/>
			</linearGradient>
			<path fill="url(#SVGID_4_)" d="M112.863,35.72c0,11.014,8.928,19.942,19.941,19.942c1.259,0,2.488-0.121,3.683-0.344
				c0.234-1.72,0.364-3.471,0.364-5.255c0-12.571-5.934-23.751-15.145-30.913C116.374,22.729,112.863,28.813,112.863,35.72z"/>
			<linearGradient id="SVGID_5_" gradientUnits="userSpaceOnUse" x1="103.9258" y1="59.2954" x2="162.0459" y2="59.2954">
				<stop  offset="0" style="stop-color:#45C480"/>
				<stop  offset="0.0901" style="stop-color:#37BF86"/>
				<stop  offset="0.2908" style="stop-color:#1FB590"/>
				<stop  offset="0.5022" style="stop-color:#0EAE97"/>
				<stop  offset="0.7293" style="stop-color:#03AA9C"/>
				<stop  offset="1" style="stop-color:#00A99D"/>
			</linearGradient>
			<path fill="url(#SVGID_5_)" d="M152.604,28.283c-0.876-0.971-1.78-1.918-2.707-2.842c-2.3-3.815-5.84-6.795-10.061-8.386
				c-2.188-0.824-4.556-1.278-7.031-1.278c-4.107,0-7.925,1.243-11.098,3.373c9.211,7.162,15.145,18.342,15.145,30.913
				c0,1.784-0.13,3.535-0.364,5.255c-0.056,0.408-0.111,0.815-0.179,1.219c-0.251,5.79-2.469,11.067-6,15.19
				c-5.923,8.896-15.387,15.229-26.383,16.986c17.3,0.443,33.438,5.547,47.211,14.1c6.915-11.193,10.909-24.383,10.909-38.507
				C162.046,51.214,158.613,38.926,152.604,28.283z"/>
			<g>
				<linearGradient id="SVGID_6_" gradientUnits="userSpaceOnUse" x1="48.4556" y1="214.584" x2="193.5018" y2="214.584">
					<stop  offset="0" style="stop-color:#45C480"/>
					<stop  offset="0.0901" style="stop-color:#37BF86"/>
					<stop  offset="0.2908" style="stop-color:#1FB590"/>
					<stop  offset="0.5022" style="stop-color:#0EAE97"/>
					<stop  offset="0.7293" style="stop-color:#03AA9C"/>
					<stop  offset="1" style="stop-color:#00A99D"/>
				</linearGradient>
				<path fill="url(#SVGID_6_)" d="M130.173,241.734c-36.904,0-66.823-29.919-66.823-66.824c0-2.426,0.133-4.823,0.386-7.186
					c-3.439,8.091-5.346,16.99-5.346,26.334c0,37.215,30.17,67.385,67.385,67.385c36.054,0,65.49-28.314,67.294-63.917
					C183.801,223.301,159.141,241.734,130.173,241.734z"/>
				<path fill="#121332" d="M130.173,241.734c-36.904,0-66.823-29.919-66.823-66.824c0-2.426,0.133-4.823,0.386-7.186
					c-3.439,8.091-5.346,16.99-5.346,26.334c0,37.215,30.17,67.385,67.385,67.385c36.054,0,65.49-28.314,67.294-63.917
					C183.801,223.301,159.141,241.734,130.173,241.734z"/>
				<linearGradient id="SVGID_7_" gradientUnits="userSpaceOnUse" x1="48.4575" y1="157.6152" x2="193.4924" y2="157.6152">
					<stop  offset="0" style="stop-color:#41C5EB"/>
					<stop  offset="0.2455" style="stop-color:#35B8E7"/>
					<stop  offset="0.5813" style="stop-color:#2CAEE3"/>
					<stop  offset="1" style="stop-color:#29ABE2"/>
				</linearGradient>
				<path fill="url(#SVGID_7_)" d="M76.888,147.684c-0.204-0.061-0.411-0.114-0.614-0.178c-3.922,3.077-7.514,6.554-10.728,10.363
					c-0.842,3.198-1.451,6.49-1.811,9.855C66.908,160.26,71.387,153.482,76.888,147.684z"/>
				<linearGradient id="SVGID_8_" gradientUnits="userSpaceOnUse" x1="63.3501" y1="157.6152" x2="196.9858" y2="157.6152">
					<stop  offset="0" style="stop-color:#41C5EB"/>
					<stop  offset="0.2455" style="stop-color:#35B8E7"/>
					<stop  offset="0.5813" style="stop-color:#2CAEE3"/>
					<stop  offset="1" style="stop-color:#29ABE2"/>
				</linearGradient>
				<path fill="url(#SVGID_8_)" d="M76.888,147.684c-0.204-0.061-0.411-0.114-0.614-0.178c-3.922,3.077-7.514,6.554-10.728,10.363
					c-0.842,3.198-1.451,6.49-1.811,9.855C66.908,160.26,71.387,153.482,76.888,147.684z"/>
				<g>
					<linearGradient id="SVGID_9_" gradientUnits="userSpaceOnUse" x1="63.3882" y1="210.0659" x2="196.993" y2="210.0659">
						<stop  offset="0" style="stop-color:#45C480"/>
						<stop  offset="0.0901" style="stop-color:#37BF86"/>
						<stop  offset="0.2908" style="stop-color:#1FB590"/>
						<stop  offset="0.5022" style="stop-color:#0EAE97"/>
						<stop  offset="0.7293" style="stop-color:#03AA9C"/>
						<stop  offset="1" style="stop-color:#00A99D"/>
					</linearGradient>
					<path fill="url(#SVGID_9_)" d="M186.373,211.066c0.435-0.644,0.852-1.301,1.251-1.971c-0.001-0.01-0.005-0.021-0.008-0.03
						C187.213,209.74,186.799,210.408,186.373,211.066z"/>
					<linearGradient id="SVGID_10_" gradientUnits="userSpaceOnUse" x1="63.3496" y1="194.709" x2="196.9961" y2="194.709">
						<stop  offset="0" style="stop-color:#45C480"/>
						<stop  offset="0.0901" style="stop-color:#37BF86"/>
						<stop  offset="0.2908" style="stop-color:#1FB590"/>
						<stop  offset="0.5022" style="stop-color:#0EAE97"/>
						<stop  offset="0.7293" style="stop-color:#03AA9C"/>
						<stop  offset="1" style="stop-color:#00A99D"/>
					</linearGradient>
					<path fill="url(#SVGID_10_)" d="M145.949,231.081c-26.275,0-47.575-21.301-47.575-47.575c0-13.417,5.554-25.535,14.489-34.184
						c-4.768,0.975-9.704,1.484-14.759,1.484c-7.379,0-14.499-1.097-21.217-3.123c-5.501,5.799-9.979,12.576-13.152,20.041
						c-0.253,2.362-0.386,4.76-0.386,7.186c0,36.905,29.919,66.824,66.823,66.824c23.583,0,44.309-12.219,56.2-30.668
						C177.886,223.645,162.9,231.081,145.949,231.081z"/>
					<linearGradient id="SVGID_11_" gradientUnits="userSpaceOnUse" x1="186.8794" y1="207.8818" x2="197.8654" y2="207.8818">
						<stop  offset="0" style="stop-color:#45C480"/>
						<stop  offset="0.0901" style="stop-color:#37BF86"/>
						<stop  offset="0.2908" style="stop-color:#1FB590"/>
						<stop  offset="0.5022" style="stop-color:#0EAE97"/>
						<stop  offset="0.7293" style="stop-color:#03AA9C"/>
						<stop  offset="1" style="stop-color:#00A99D"/>
					</linearGradient>
					<path opacity="0.3" fill="url(#SVGID_11_)" d="M187.616,209.065c0.003,0.01,0.007,0.021,0.008,0.03
						c0.475-0.793,0.93-1.6,1.353-2.428C188.537,207.477,188.086,208.276,187.616,209.065z"/>
					<linearGradient id="SVGID_12_" gradientUnits="userSpaceOnUse" x1="63.2471" y1="207.8818" x2="197.0049" y2="207.8818">
						<stop  offset="0" style="stop-color:#45C480"/>
						<stop  offset="0.0901" style="stop-color:#37BF86"/>
						<stop  offset="0.2908" style="stop-color:#1FB590"/>
						<stop  offset="0.5022" style="stop-color:#0EAE97"/>
						<stop  offset="0.7293" style="stop-color:#03AA9C"/>
						<stop  offset="1" style="stop-color:#00A99D"/>
					</linearGradient>
					<path fill="url(#SVGID_12_)" d="M187.616,209.065c0.003,0.01,0.007,0.021,0.008,0.03c0.475-0.793,0.93-1.6,1.353-2.428
						C188.537,207.477,188.086,208.276,187.616,209.065z"/>
				</g>
			</g>
		</g>
		<path fill="#121332" d="M121.229,15.92c0,0-0.883-5.739-3.13-8.719c-1.186-1.57,0.298-3.893,2.149-4.558
			c1.854-0.665,3.895,0.298,4.559,2.151C125.473,6.646,121.229,15.92,121.229,15.92z"/>
		<path fill="#121332" d="M117.068,59.188c0,0,2.431-5.274,5.412-7.519c1.572-1.184,0.786-3.824-0.811-4.975
			c-1.599-1.149-3.825-0.787-4.975,0.812C115.545,49.104,117.068,59.188,117.068,59.188z"/>
		<circle fill="#F6F6F6" cx="125.105" cy="35.545" r="4.027"/>
		<circle fill="#121332" cx="125.625" cy="36.599" r="2.108"/>
	</g>
	<g>
		<linearGradient id="SVGID_13_" gradientUnits="userSpaceOnUse" x1="48.4561" y1="217.2729" x2="193.4447" y2="217.2729">
			<stop  offset="0" style="stop-color:#41C5EB"/>
			<stop  offset="0.2455" style="stop-color:#35B8E7"/>
			<stop  offset="0.5813" style="stop-color:#2CAEE3"/>
			<stop  offset="1" style="stop-color:#29ABE2"/>
		</linearGradient>
		<path fill="url(#SVGID_13_)" d="M125.774,261.443c-37.215,0-67.385-30.17-67.385-67.385c0-9.344,1.906-18.243,5.346-26.334
			c0.359-3.365,0.969-6.657,1.811-9.855c-10.66,12.635-17.09,28.956-17.09,46.781c0,36.988,27.661,67.517,63.424,72.026
			c34.265-3.766,62.933-26.091,76.096-56.521c-0.027-0.099,0,0-0.026-0.1C177.773,244.361,153.773,261.443,125.774,261.443z"/>
	</g>
</g>
</svg>
