<?xml version="1.0" encoding="utf-8"?>
<!-- Generator: Adobe Illustrator 16.0.3, SVG Export Plug-In . SVG Version: 6.00 Build 0)  -->
<!DOCTYPE svg PUBLIC "-//W3C//DTD SVG 1.1//EN" "http://www.w3.org/Graphics/SVG/1.1/DTD/svg11.dtd">
<svg version="1.1" id="Layer_1" xmlns="http://www.w3.org/2000/svg" xmlns:xlink="http://www.w3.org/1999/xlink" x="0px" y="0px"
	 width="116.748px" height="34.475px" viewBox="0 0 116.748 34.475" enable-background="new 0 0 116.748 34.475"
	 xml:space="preserve">
<g>
	<g>
		<path fill="#FFFFFF" d="M50.86,24.009c-0.245,0-0.604-0.022-1.077-0.065c-0.473-0.045-0.962-0.145-1.467-0.3
			c-0.506-0.156-0.937-0.396-1.296-0.722l0.735-1.044v5.815h-3.57V14.82c0-0.488,0.154-0.902,0.464-1.243
			c0.309-0.34,0.733-0.621,1.271-0.843c0.539-0.223,1.162-0.39,1.872-0.5c0.709-0.111,1.471-0.167,2.286-0.167
			c1.238,0,2.327,0.188,3.264,0.567c0.938,0.376,1.671,1.008,2.201,1.896c0.53,0.889,0.794,2.102,0.794,3.641
			c0,1.154-0.22,2.172-0.66,3.053c-0.44,0.88-1.064,1.564-1.872,2.054C52.999,23.766,52.017,24.009,50.86,24.009z M49.784,21.346
			c0.652,0,1.19-0.104,1.614-0.311c0.425-0.207,0.746-0.551,0.966-1.032c0.22-0.479,0.331-1.127,0.331-1.943
			c0-0.679-0.083-1.256-0.245-1.729c-0.163-0.474-0.444-0.84-0.844-1.1c-0.399-0.258-0.958-0.387-1.675-0.387
			c-0.783,0-1.341,0.068-1.675,0.209c-0.334,0.141-0.501,0.324-0.501,0.544v5.283c0.309,0.163,0.651,0.282,1.027,0.355
			C49.156,21.31,49.49,21.346,49.784,21.346z"/>
		<path fill="#FFFFFF" d="M64.799,24.009c-0.963,0-1.846-0.095-2.653-0.289c-0.808-0.19-1.505-0.513-2.091-0.965
			c-0.587-0.45-1.048-1.069-1.381-1.853c-0.335-0.785-0.502-1.76-0.502-2.93c0-1.82,0.493-3.255,1.48-4.308
			c0.986-1.05,2.466-1.574,4.438-1.574c0.26,0,0.603,0.019,1.026,0.055c0.425,0.038,0.864,0.13,1.32,0.277s0.864,0.399,1.224,0.755
			l-0.734,1.021V7.828h3.619v12.918c0,0.549-0.162,1.024-0.488,1.433c-0.326,0.405-0.763,0.743-1.31,1.009
			c-0.546,0.268-1.161,0.471-1.847,0.611C66.217,23.939,65.516,24.009,64.799,24.009z M64.945,21.235
			c0.588,0,1.064-0.071,1.43-0.211c0.367-0.142,0.551-0.352,0.551-0.633V15.22c-0.293-0.147-0.607-0.262-0.941-0.344
			c-0.334-0.081-0.656-0.123-0.966-0.123c-0.685,0-1.263,0.104-1.735,0.312c-0.474,0.207-0.828,0.555-1.064,1.044
			c-0.236,0.488-0.355,1.146-0.355,1.976c0,0.65,0.1,1.208,0.294,1.676c0.196,0.466,0.518,0.828,0.966,1.086
			C63.572,21.105,64.179,21.235,64.945,21.235z"/>
		<path fill="#FFFFFF" d="M77.393,23.676h-3.619V8.205h3.619V23.676z"/>
		<path fill="#FFFFFF" d="M84.238,23.676h-3.619V8.205h3.619V23.676z"/>
		<path fill="#FFFFFF" d="M102.982,24.009c-0.244,0-0.604-0.022-1.076-0.065c-0.473-0.045-0.963-0.145-1.468-0.3
			c-0.505-0.156-0.937-0.396-1.296-0.722l0.733-1.044v5.815h-3.569V14.82c0-0.488,0.154-0.902,0.464-1.243
			c0.31-0.34,0.733-0.621,1.272-0.843c0.537-0.223,1.161-0.39,1.87-0.5c0.709-0.111,1.471-0.167,2.286-0.167
			c1.239,0,2.328,0.188,3.264,0.567c0.938,0.376,1.672,1.008,2.201,1.896c0.53,0.889,0.796,2.102,0.796,3.641
			c0,1.154-0.221,2.172-0.661,3.053c-0.439,0.88-1.063,1.564-1.871,2.054C105.121,23.766,104.139,24.009,102.982,24.009z
			 M101.906,21.346c0.652,0,1.189-0.104,1.613-0.311c0.425-0.207,0.746-0.551,0.967-1.032c0.22-0.479,0.33-1.127,0.33-1.943
			c0-0.679-0.082-1.256-0.244-1.729c-0.164-0.474-0.445-0.84-0.845-1.1c-0.399-0.258-0.958-0.387-1.675-0.387
			c-0.783,0-1.341,0.068-1.676,0.209c-0.334,0.141-0.501,0.324-0.501,0.544v5.283c0.31,0.163,0.651,0.282,1.027,0.355
			C101.278,21.31,101.613,21.346,101.906,21.346z"/>
		<path fill="#FFFFFF" d="M114.622,23.676h-3.619V8.205h3.619V23.676z"/>
		<g>
			<path fill="#FFFFFF" d="M90.439,24.237c-1.884,0-3.417-1.531-3.417-3.416s1.533-3.416,3.417-3.416
				c1.885,0,3.416,1.531,3.416,3.416S92.324,24.237,90.439,24.237z M90.439,19.813c-0.557,0-1.009,0.452-1.009,1.009
				s0.452,1.009,1.009,1.009s1.009-0.452,1.009-1.009S90.996,19.813,90.439,19.813z"/>
		</g>
	</g>
	<g>
		<path fill="none" d="M24.139,5.119c-0.003,0.006-0.007,0.014-0.01,0.02c0.004-0.004,0.009-0.009,0.014-0.014
			C24.142,5.123,24.141,5.121,24.139,5.119z"/>
		<path fill="none" d="M23.377,6.113c-0.355,0.313-0.779,0.546-1.249,0.678c0.176,0.409,0.322,0.834,0.434,1.272
			c0.039,0.006,0.079,0.01,0.118,0.016C22.781,7.367,23.023,6.703,23.377,6.113z"/>
		<path opacity="0.4" fill="#FBB03B" d="M19.12,25.217c0.756,0.211,1.553,0.326,2.377,0.326c0.885,0,1.737-0.131,2.542-0.374
			c0.776-0.562,1.647-1,2.586-1.281c1.64-1.182,2.854-2.914,3.372-4.929c-0.78-0.232-1.608-0.358-2.464-0.358
			C23.455,18.601,20.038,21.42,19.12,25.217z"/>
		<path opacity="0.4" fill="#FBB03B" d="M26.625,23.888c-0.939,0.281-1.81,0.72-2.586,1.281
			C24.978,24.885,25.849,24.449,26.625,23.888z"/>
		<path fill="#F20D72" d="M27.532,18.601c-4.077,0-7.494,2.819-8.413,6.616c-0.158,0.654-0.244,1.338-0.244,2.041
			c0,1.858,0.587,3.578,1.584,4.988c0-0.023-0.002-0.047-0.002-0.065c0-2.886,1.412-5.438,3.581-7.012
			c0.939-0.284,1.811-0.72,2.586-1.281c1.64-1.182,2.854-2.914,3.372-4.929C29.216,18.727,28.388,18.601,27.532,18.601z"/>
		<linearGradient id="SVGID_1_" gradientUnits="userSpaceOnUse" x1="15.1348" y1="17.2036" x2="6.9521" y2="7.5331">
			<stop  offset="0" style="stop-color:#7B0CB1"/>
			<stop  offset="0.0503" style="stop-color:#7C0FB5"/>
			<stop  offset="0.3247" style="stop-color:#801BC6"/>
			<stop  offset="0.6254" style="stop-color:#8223D0"/>
			<stop  offset="1" style="stop-color:#8325D3"/>
		</linearGradient>
		<path fill="url(#SVGID_1_)" d="M18.559,8.912c-1.543-2.379-4.22-3.952-7.266-3.952c-2.055,0-3.942,0.717-5.426,1.914
			c-1.969,1.587-3.229,4.015-3.229,6.742c0,0.478,0.04,0.943,0.114,1.398c0.729-0.721,1.586-1.31,2.533-1.735
			c1.083-0.488,2.283-0.762,3.549-0.762c0.124,0,0.247,0.005,0.371,0.012c0.522-0.141,1.07-0.217,1.636-0.217
			c0.905,0,1.765,0.192,2.542,0.539c1.871,0.83,3.259,2.549,3.628,4.621c0.266,0.287,0.505,0.597,0.714,0.926
			c0.453-0.246,0.884-0.531,1.284-0.854c0.602-1.18,0.944-2.514,0.944-3.929C19.951,11.88,19.438,10.266,18.559,8.912z"/>
		<path opacity="0.4" fill="#FBB03B" d="M27.913,14.646c0.705,0,1.376-0.139,1.991-0.39c-0.047-0.157-0.096-0.313-0.153-0.467
			c-0.572,0.213-1.192,0.329-1.838,0.329c-2.417,0-4.453-1.623-5.084-3.836c-0.001,0.155-0.007,0.311-0.017,0.467
			C23.423,12.995,25.475,14.646,27.913,14.646z"/>
		<path fill="#C1272D" d="M29.751,13.79c-0.572,0.213-1.192,0.329-1.838,0.329c-2.417,0-4.453-1.623-5.084-3.836
			c-0.109-0.382-0.177-0.778-0.197-1.188c-0.003,0.087-0.006,0.175-0.006,0.264c0,0.482,0.066,0.948,0.186,1.392
			c0.612,2.245,2.663,3.896,5.101,3.896c0.705,0,1.376-0.139,1.991-0.39C29.857,14.1,29.808,13.943,29.751,13.79z"/>
		<linearGradient id="SVGID_2_" gradientUnits="userSpaceOnUse" x1="13.8682" y1="21.2583" x2="18.0845" y2="21.2583">
			<stop  offset="0" style="stop-color:#F20D72"/>
			<stop  offset="0.2891" style="stop-color:#E11165"/>
			<stop  offset="0.6054" style="stop-color:#D7135D"/>
			<stop  offset="1" style="stop-color:#D4145A"/>
		</linearGradient>
		<path fill="url(#SVGID_2_)" d="M17.975,19.169c-0.127-0.624-0.127-0.651-0.251-1.065c-1.078,0.481-2.293,0.762-3.55,0.762
			c-0.102,0-0.204-0.004-0.305-0.009c0.41,0.713,0.658,1.526,0.695,2.396c0.004,0.079,0.006,0.157,0.006,0.235
			c0,0.089-0.002,0.177-0.006,0.264c-0.006,0.12-0.018,0.236-0.03,0.354c0.227,0.294,0.474,0.574,0.736,0.84
			c0.13,0.132,0.263,0.261,0.401,0.384c0.466,0.412,0.975,0.776,1.52,1.085c0.571-1.155,0.895-2.457,0.895-3.835
			C18.084,20.103,18.049,19.626,17.975,19.169z"/>
		<path opacity="0.4" fill="#FBB03B" d="M22.831,10.207c0-0.548-0.054-1.084-0.151-1.604c-0.023,0.162-0.039,0.325-0.048,0.491
			c0.02,0.41,0.088,0.807,0.197,1.188C22.829,10.256,22.831,10.231,22.831,10.207z"/>
		<path opacity="0.4" fill="#FBB03B" d="M28.992,12.206c-0.444-0.728-0.992-1.387-1.623-1.955c-0.336-0.694-0.525-1.475-0.525-2.298
			c0-1.517,0.641-2.884,1.663-3.848c-0.194-0.022-0.033-0.034-0.234-0.034C28.058,4.071,28,4.084,28,4.109c0,0.007,0,0.014,0,0.02
			c0,0.955-1.132,1.729-2.087,1.729c-0.446,0-1.03-0.171-1.337-0.448c-0.784,0.699-1.448,1.627-1.707,2.681
			c-0.042,0.169-0.12,0.341-0.143,0.513c0.096,0.52,0.126,1.056,0.126,1.604c0,0.024-0.013,0.049-0.013,0.076
			c0.63,2.213,2.662,3.836,5.08,3.836c0.646,0,1.261-0.116,1.835-0.329C29.554,13.235,29.296,12.703,28.992,12.206z"/>
		<linearGradient id="SVGID_3_" gradientUnits="userSpaceOnUse" x1="22.6533" y1="9.0952" x2="29.7544" y2="9.0952">
			<stop  offset="0" style="stop-color:#F20D72"/>
			<stop  offset="0.2891" style="stop-color:#E11165"/>
			<stop  offset="0.6054" style="stop-color:#D7135D"/>
			<stop  offset="1" style="stop-color:#D4145A"/>
		</linearGradient>
		<path fill="url(#SVGID_3_)" d="M28.992,12.206c-0.444-0.728-0.992-1.387-1.623-1.955c-0.336-0.694-0.525-1.475-0.525-2.298
			c0-1.517,0.641-2.884,1.663-3.848c-0.194-0.022-0.033-0.034-0.234-0.034C28.058,4.071,28,4.084,28,4.109c0,0.007,0,0.014,0,0.02
			c0,0.955-1.132,1.729-2.087,1.729c-0.446,0-1.03-0.171-1.337-0.448c-0.784,0.699-1.448,1.627-1.707,2.681
			c-0.042,0.169-0.12,0.341-0.143,0.513c-0.024,0.162-0.064,0.325-0.073,0.491c0.021,0.41,0.078,0.807,0.187,1.188
			c0.63,2.213,2.662,3.836,5.08,3.836c0.646,0,1.261-0.116,1.835-0.329C29.554,13.235,29.296,12.703,28.992,12.206z"/>
		<linearGradient id="SVGID_4_" gradientUnits="userSpaceOnUse" x1="22.6318" y1="11.105" x2="29.751" y2="11.105">
			<stop  offset="0" style="stop-color:#F20D72"/>
			<stop  offset="0.2891" style="stop-color:#E11165"/>
			<stop  offset="0.6054" style="stop-color:#D7135D"/>
			<stop  offset="1" style="stop-color:#D4145A"/>
		</linearGradient>
		<path fill="url(#SVGID_4_)" d="M28.992,12.206c-0.444-0.728-0.992-1.387-1.623-1.955c-1.256-1.132-2.839-1.904-4.589-2.16
			c-0.042,0.169-0.075,0.341-0.1,0.513c-0.023,0.162-0.039,0.325-0.048,0.491c0.02,0.41,0.088,0.807,0.197,1.188
			c0.631,2.213,2.667,3.836,5.084,3.836c0.646,0,1.267-0.116,1.838-0.329C29.551,13.235,29.296,12.703,28.992,12.206z"/>
		<path opacity="0.4" fill="#FBB03B" d="M28,4.129c0-0.006,0-0.013,0-0.02c-2,0.132-2.457,0.599-3.244,1.301
			c0.308,0.277,0.892,0.448,1.336,0.448C27.047,5.858,28,5.084,28,4.129z"/>
		<linearGradient id="SVGID_5_" gradientUnits="userSpaceOnUse" x1="24.7563" y1="4.9839" x2="28" y2="4.9839">
			<stop  offset="0" style="stop-color:#7B0CB1"/>
			<stop  offset="0.0503" style="stop-color:#7C0FB5"/>
			<stop  offset="0.3247" style="stop-color:#801BC6"/>
			<stop  offset="0.6254" style="stop-color:#8223D0"/>
			<stop  offset="1" style="stop-color:#8325D3"/>
		</linearGradient>
		<path fill="url(#SVGID_5_)" d="M28,4.129c0-0.006,0-0.013,0-0.02c-2,0.132-2.457,0.599-3.244,1.301
			c0.308,0.277,0.892,0.448,1.336,0.448C27.047,5.858,28,5.084,28,4.129z"/>
		<path opacity="0.2" fill="#FBB03B" d="M6.775,22.178c0.023,0.026,0.048,0.053,0.072,0.079c-0.008-0.045-0.017-0.091-0.023-0.136
			C6.807,22.141,6.791,22.16,6.775,22.178z"/>
		<linearGradient id="SVGID_6_" gradientUnits="userSpaceOnUse" x1="17.1899" y1="17.9834" x2="30.2715" y2="17.9834">
			<stop  offset="0" style="stop-color:#F20D72"/>
			<stop  offset="0.2891" style="stop-color:#E11165"/>
			<stop  offset="0.6054" style="stop-color:#D7135D"/>
			<stop  offset="1" style="stop-color:#D4145A"/>
		</linearGradient>
		<path fill="url(#SVGID_6_)" d="M29.904,14.257c-0.615,0.251-1.286,0.39-1.991,0.39c-2.438,0-4.489-1.651-5.101-3.896
			c-0.155,2.504-1.373,4.719-3.21,6.199c-0.4,0.323-0.831,0.607-1.284,0.855c-0.194,0.104-0.391,0.207-0.594,0.299
			c0.104,0.351,0.188,0.709,0.247,1.076c0.074,0.455,0.114,0.923,0.114,1.398c0,1.378-0.323,2.68-0.895,3.835
			c0.286,0.16,0.583,0.307,0.887,0.436c0.337,0.143,0.686,0.268,1.042,0.368c0.918-3.797,4.335-6.616,8.413-6.616
			c0.856,0,1.684,0.126,2.464,0.358c0.179-0.699,0.275-1.433,0.275-2.188C30.271,15.896,30.142,15.053,29.904,14.257z"/>
		<linearGradient id="SVGID_7_" gradientUnits="userSpaceOnUse" x1="16.9512" y1="15.104" x2="10.2567" y2="18.5256">
			<stop  offset="0" style="stop-color:#41C5EB"/>
			<stop  offset="0.2455" style="stop-color:#35B8E7"/>
			<stop  offset="0.5813" style="stop-color:#2CAEE3"/>
			<stop  offset="1" style="stop-color:#29ABE2"/>
		</linearGradient>
		<path fill="url(#SVGID_7_)" d="M17.702,18.038c-0.193-0.632-0.457-1.232-0.782-1.792c0.244,0.193,0.472,0.406,0.685,0.633
			c-0.37-2.073-1.756-3.793-3.629-4.624c-0.776-0.346-1.636-0.538-2.541-0.538c-0.566,0-1.114,0.076-1.636,0.217
			c-1.34,0.361-2.501,1.155-3.327,2.223c-0.818,1.061-1.306,2.389-1.306,3.83c0,0.062,0.003,0.122,0.005,0.182
			c0.726-0.896,1.734-1.555,2.895-1.827c0.356-0.084,0.726-0.13,1.104-0.139c0.038,0,0.075-0.003,0.114-0.003
			c1.33,0,2.545,0.492,3.474,1.303c0.442,0.385,0.818,0.843,1.112,1.354c0.41,0.713,0.658,1.526,0.695,2.396
			c0.004,0.079,0.006,0.157,0.006,0.235c0,0.089-0.002,0.177-0.006,0.264c-0.006,0.12-0.018,0.236-0.03,0.354
			c0.227,0.294,0.474,0.574,0.736,0.84c0.047-0.036,0.094-0.074,0.14-0.109c0.996-0.818,1.734-1.938,2.079-3.217
			c0.129-0.481,0.201-0.987,0.212-1.505c0.008-0.005,0.015-0.007,0.023-0.01C17.717,18.079,17.709,18.06,17.702,18.038z"/>
		<linearGradient id="SVGID_8_" gradientUnits="userSpaceOnUse" x1="6.7476" y1="19.1602" x2="14.5693" y2="19.1602">
			<stop  offset="0" style="stop-color:#45C480"/>
			<stop  offset="0.0901" style="stop-color:#37BF86"/>
			<stop  offset="0.2908" style="stop-color:#1FB590"/>
			<stop  offset="0.5022" style="stop-color:#0EAE97"/>
			<stop  offset="0.7293" style="stop-color:#03AA9C"/>
			<stop  offset="1" style="stop-color:#00A99D"/>
		</linearGradient>
		<path fill="url(#SVGID_8_)" d="M14.563,21.252c-0.037-0.869-0.285-1.683-0.695-2.396c-0.293-0.512-0.67-0.97-1.112-1.354
			c-0.929-0.811-2.144-1.303-3.474-1.303c-0.039,0-0.076,0.003-0.114,0.003c-0.225,0.177-0.438,0.365-0.637,0.569
			c-0.86,0.882-1.462,2.016-1.686,3.28c-0.063,0.355-0.098,0.724-0.098,1.099c0,0.33,0.026,0.654,0.076,0.971
			c0.414-0.491,0.917-0.906,1.484-1.22c0.757-0.421,1.628-0.659,2.556-0.659c1.15,0,2.213,0.367,3.082,0.99
			c0.034,0.059,0.068,0.116,0.103,0.172c0.151,0.242,0.313,0.474,0.485,0.7c0.013-0.117,0.024-0.233,0.03-0.354
			c0.004-0.087,0.006-0.175,0.006-0.264C14.569,21.409,14.567,21.331,14.563,21.252z"/>
		<linearGradient id="SVGID_9_" gradientUnits="userSpaceOnUse" x1="19.646" y1="4.4272" x2="27.1978" y2="4.4272">
			<stop  offset="0" style="stop-color:#45C480"/>
			<stop  offset="0.0901" style="stop-color:#37BF86"/>
			<stop  offset="0.2908" style="stop-color:#1FB590"/>
			<stop  offset="0.5022" style="stop-color:#0EAE97"/>
			<stop  offset="0.7293" style="stop-color:#03AA9C"/>
			<stop  offset="1" style="stop-color:#00A99D"/>
		</linearGradient>
		<path fill="url(#SVGID_9_)" d="M27.115,3.389c-0.033-0.07-0.071-0.137-0.112-0.201c-0.069,0.052-0.142,0.102-0.217,0.146
			c-0.373-0.095-0.705-0.298-0.955-0.573c-0.158,0.336-0.394,0.628-0.685,0.853c-0.25-0.05-0.484-0.147-0.698-0.274
			c-0.105-0.062-0.206-0.131-0.3-0.211c-0.325-0.271-0.57-0.631-0.703-1.041c-0.013-0.041-0.027-0.078-0.037-0.12
			c0.002,0.054,0.007,0.104,0.007,0.157c0,0.431-0.049,0.835-0.254,1.181c-0.037,0.063-0.051,0.124-0.051,0.183l0,0
			c0,0.039-0.127,0.076-0.158,0.109c-0.422,0.487-1.077,0.798-1.771,0.798c-0.487,0-0.957-0.154-1.329-0.413
			c-0.125,0.269-0.206,0.565-0.206,0.882c0,1.148,0.927,2.022,2.075,2.022C22.398,6.885,22.996,7,23.376,6h0.002
			c0.003,0,0.005,0.047,0.007,0.045c0.062-0.083,0.117-0.14,0.166-0.229c0.172-0.251,0.366-0.474,0.578-0.69
			c0.003-0.006,0.007-0.006,0.01-0.014c0.001,0.003,0.003,0.009,0.004,0.011c0.801-0.815,1.864-1.368,3.054-1.529
			C27.174,3.522,27.146,3.455,27.115,3.389z"/>
	</g>
</g>
</svg>
