<?xml version="1.0" encoding="utf-8"?>
<!-- Generator: Adobe Illustrator 16.0.3, SVG Export Plug-In . SVG Version: 6.00 Build 0)  -->
<!DOCTYPE svg PUBLIC "-//W3C//DTD SVG 1.1//EN" "http://www.w3.org/Graphics/SVG/1.1/DTD/svg11.dtd">
<svg version="1.1" id="Layer_1" xmlns="http://www.w3.org/2000/svg" xmlns:xlink="http://www.w3.org/1999/xlink" x="0px" y="0px"
	 width="192px" height="94.828px" viewBox="0 0 192 94.828" enable-background="new 0 0 192 94.828" xml:space="preserve">
<g>
	<g>
		<path fill="#121332" d="M23.434,80.647c-0.625,0-1.542-0.056-2.75-0.17c-1.209-0.113-2.46-0.369-3.75-0.766
			c-1.292-0.397-2.396-1.012-3.313-1.845l1.875-2.666v14.864H6.371V57.16c0-1.248,0.395-2.306,1.188-3.176
			c0.791-0.871,1.875-1.588,3.25-2.156c1.375-0.566,2.969-0.993,4.781-1.276c1.813-0.284,3.76-0.425,5.844-0.425
			c3.166,0,5.948,0.48,8.344,1.445c2.396,0.965,4.271,2.582,5.625,4.852c1.354,2.269,2.031,5.37,2.031,9.304
			c0,2.95-0.563,5.552-1.687,7.801c-1.125,2.251-2.719,3.999-4.782,5.247C28.901,80.023,26.391,80.647,23.434,80.647z
			 M20.683,73.841c1.667,0,3.042-0.265,4.125-0.796c1.084-0.527,1.906-1.408,2.469-2.637c0.563-1.229,0.844-2.883,0.844-4.965
			c0-1.738-0.209-3.214-0.626-4.425c-0.417-1.21-1.135-2.146-2.156-2.808c-1.021-0.662-2.449-0.993-4.281-0.993
			c-2,0-3.428,0.179-4.282,0.539c-0.854,0.359-1.28,0.823-1.28,1.39v13.502c0.791,0.417,1.666,0.719,2.625,0.908
			C19.079,73.746,19.933,73.841,20.683,73.841z"/>
		<path fill="#121332" d="M59.059,80.647c-2.458,0-4.719-0.246-6.781-0.737c-2.063-0.491-3.844-1.313-5.344-2.468
			c-1.5-1.153-2.678-2.731-3.531-4.736c-0.855-2.005-1.282-4.501-1.282-7.489c0-4.652,1.259-8.319,3.781-11.006
			c2.521-2.686,6.302-4.027,11.345-4.027c0.666,0,1.541,0.047,2.624,0.141c1.084,0.096,2.208,0.332,3.375,0.711
			c1.167,0.377,2.208,1.021,3.125,1.928l-1.875,2.609V39.291h9.25v33.017c0,1.4-0.417,2.62-1.25,3.66
			c-0.834,1.04-1.949,1.899-3.344,2.581c-1.396,0.681-2.969,1.201-4.719,1.56C62.684,80.469,60.893,80.647,59.059,80.647z
			 M59.434,73.557c1.5,0,2.718-0.18,3.656-0.539s1.406-0.898,1.406-1.617V58.182c-0.75-0.377-1.553-0.671-2.406-0.879
			c-0.855-0.208-1.678-0.313-2.469-0.313c-1.75,0-3.229,0.266-4.438,0.795c-1.209,0.53-2.115,1.418-2.719,2.666
			c-0.604,1.248-0.906,2.932-0.906,5.05c0,1.664,0.25,3.091,0.75,4.283c0.5,1.191,1.323,2.118,2.469,2.779
			C55.923,73.227,57.475,73.557,59.434,73.557z"/>
		<path fill="#121332" d="M91.247,79.797h-9.25V40.255h9.25V79.797z"/>
		<path fill="#121332" d="M108.746,79.797h-9.25V40.255h9.25V79.797z"/>
		<path fill="#121332" d="M156.654,80.647c-0.626,0-1.543-0.056-2.752-0.17c-1.209-0.113-2.459-0.369-3.75-0.766
			c-1.291-0.397-2.396-1.012-3.313-1.845l1.875-2.666v14.864h-9.125V57.16c0-1.248,0.396-2.306,1.188-3.176
			c0.791-0.871,1.875-1.588,3.25-2.156c1.375-0.566,2.969-0.993,4.781-1.276c1.813-0.284,3.761-0.425,5.844-0.425
			c3.166,0,5.948,0.48,8.344,1.445c2.396,0.965,4.271,2.582,5.626,4.852c1.354,2.269,2.031,5.37,2.031,9.304
			c0,2.95-0.563,5.552-1.688,7.801c-1.125,2.251-2.719,3.999-4.781,5.247C162.121,80.023,159.611,80.647,156.654,80.647z
			 M153.902,73.841c1.667,0,3.042-0.265,4.125-0.796c1.084-0.527,1.907-1.408,2.47-2.637c0.563-1.229,0.844-2.883,0.844-4.965
			c0-1.738-0.21-3.214-0.626-4.425c-0.416-1.21-1.135-2.146-2.156-2.808s-2.448-0.993-4.281-0.993c-2,0-3.428,0.179-4.281,0.539
			c-0.854,0.359-1.281,0.823-1.281,1.39v13.502c0.791,0.417,1.666,0.719,2.626,0.908C152.299,73.746,153.152,73.841,153.902,73.841z
			"/>
		<path fill="#121332" d="M186.404,79.797h-9.25V40.255h9.25V79.797z"/>
		<g>
			<path fill="#121332" d="M124.596,81.234c-4.816,0-8.734-3.919-8.734-8.734c0-4.816,3.918-8.734,8.734-8.734
				s8.733,3.918,8.733,8.734C133.329,77.315,129.412,81.234,124.596,81.234z M124.596,69.922c-1.422,0-2.578,1.156-2.578,2.578
				s1.156,2.578,2.578,2.578s2.578-1.156,2.578-2.578S126.018,69.922,124.596,69.922z"/>
		</g>
	</g>
	<g>
		<path fill="none" d="M45.727,9.459c-0.005,0.011-0.011,0.022-0.017,0.033c0.007-0.008,0.015-0.016,0.024-0.023
			C45.732,9.465,45.729,9.462,45.727,9.459z"/>
		<path fill="none" d="M44.448,11.127c-0.597,0.524-1.308,0.918-2.096,1.138c0.295,0.687,0.54,1.399,0.728,2.136
			c0.065,0.008,0.132,0.016,0.197,0.025C43.447,13.233,43.854,12.117,44.448,11.127z"/>
		<path opacity="0.4" fill="#FBB03B" d="M37.302,43.189c1.27,0.357,2.608,0.552,3.99,0.552c1.484,0,2.915-0.222,4.265-0.63
			c1.302-0.943,2.765-1.677,4.341-2.149c2.751-1.985,4.79-4.894,5.658-8.273c-1.309-0.389-2.698-0.6-4.135-0.6
			C44.579,32.088,38.844,36.819,37.302,43.189z"/>
		<path opacity="0.4" fill="#FBB03B" d="M49.898,40.961c-1.577,0.473-3.04,1.206-4.341,2.149
			C47.133,42.636,48.595,41.902,49.898,40.961z"/>
		<path fill="#F20D72" d="M51.421,32.088c-6.843,0-12.578,4.731-14.12,11.101c-0.266,1.1-0.409,2.247-0.409,3.428
			c0,3.12,0.985,6.006,2.658,8.373c0-0.038-0.003-0.075-0.003-0.111c0-4.841,2.37-9.125,6.01-11.767
			c1.576-0.475,3.038-1.209,4.341-2.149c2.751-1.985,4.79-4.894,5.658-8.273C54.247,32.3,52.858,32.088,51.421,32.088z"/>
		<linearGradient id="SVGID_1_" gradientUnits="userSpaceOnUse" x1="30.6147" y1="29.7427" x2="16.8813" y2="13.5122">
			<stop  offset="0" style="stop-color:#7B0CB1"/>
			<stop  offset="0.0503" style="stop-color:#7C0FB5"/>
			<stop  offset="0.3247" style="stop-color:#801BC6"/>
			<stop  offset="0.6254" style="stop-color:#8223D0"/>
			<stop  offset="1" style="stop-color:#8325D3"/>
		</linearGradient>
		<path fill="url(#SVGID_1_)" d="M36.36,15.823c-2.59-3.991-7.083-6.633-12.195-6.633c-3.449,0-6.618,1.204-9.108,3.214
			c-3.304,2.664-5.42,6.74-5.42,11.316c0,0.8,0.067,1.583,0.191,2.348c1.224-1.208,2.662-2.199,4.251-2.914
			c1.818-0.82,3.833-1.279,5.958-1.279c0.208,0,0.415,0.011,0.623,0.02c0.876-0.236,1.794-0.364,2.746-0.364
			c1.519,0,2.961,0.324,4.265,0.904c3.141,1.396,5.47,4.282,6.089,7.761c0.445,0.478,0.847,0.998,1.197,1.552
			c0.76-0.415,1.484-0.893,2.156-1.434c1.01-1.979,1.583-4.22,1.583-6.594C38.696,20.807,37.835,18.096,36.36,15.823z"/>
		<path opacity="0.4" fill="#FBB03B" d="M52.061,25.45c1.183,0,2.311-0.233,3.342-0.653c-0.079-0.265-0.162-0.526-0.256-0.785
			c-0.961,0.356-2.001,0.552-3.086,0.552c-4.056,0-7.475-2.723-8.533-6.439c-0.002,0.263-0.012,0.525-0.028,0.786
			C44.525,22.679,47.969,25.45,52.061,25.45z"/>
		<path fill="#C1272D" d="M55.146,24.012c-0.961,0.356-2.001,0.552-3.086,0.552c-4.056,0-7.475-2.723-8.533-6.439
			c-0.183-0.639-0.297-1.305-0.331-1.993c-0.006,0.147-0.011,0.294-0.011,0.441c0,0.811,0.112,1.593,0.313,2.338
			c1.026,3.768,4.47,6.539,8.562,6.539c1.183,0,2.311-0.233,3.342-0.653C55.324,24.532,55.241,24.271,55.146,24.012z"/>
		<linearGradient id="SVGID_2_" gradientUnits="userSpaceOnUse" x1="28.4873" y1="36.5464" x2="35.5649" y2="36.5464">
			<stop  offset="0" style="stop-color:#F20D72"/>
			<stop  offset="0.2891" style="stop-color:#E11165"/>
			<stop  offset="0.6054" style="stop-color:#D7135D"/>
			<stop  offset="1" style="stop-color:#D4145A"/>
		</linearGradient>
		<path fill="url(#SVGID_2_)" d="M35.38,33.042c-0.214-1.049-0.213-1.093-0.422-1.79C33.15,32.06,31.11,32.53,29,32.53
			c-0.171,0-0.342-0.006-0.513-0.012c0.688,1.195,1.104,2.563,1.167,4.022c0.005,0.13,0.01,0.26,0.01,0.392
			c0,0.149-0.004,0.297-0.011,0.445c-0.011,0.199-0.029,0.396-0.051,0.59c0.382,0.496,0.796,0.966,1.237,1.411
			c0.218,0.221,0.442,0.438,0.673,0.645c0.782,0.694,1.636,1.305,2.551,1.82c0.959-1.939,1.502-4.124,1.502-6.435
			C35.565,34.607,35.504,33.807,35.38,33.042z"/>
		<path opacity="0.4" fill="#FBB03B" d="M43.53,18c0-0.92-0.09-1.818-0.253-2.692c-0.04,0.272-0.066,0.546-0.08,0.824
			c0.033,0.688,0.148,1.354,0.331,1.993C43.527,18.083,43.53,18.041,43.53,18z"/>
		<path opacity="0.4" fill="#FBB03B" d="M53.873,21.355c-0.746-1.223-1.666-2.328-2.725-3.283c-0.563-1.166-0.881-2.476-0.881-3.858
			c0-2.545,1.074-4.84,2.791-6.458C52.73,7.72,52.897,7.699,52.56,7.699c-0.358,0-0.56,0.023-0.56,0.065c0,0.012,0,0.023,0,0.035
			c0,1.601-1.797,2.899-3.399,2.899c-0.748,0-1.677-0.286-2.192-0.751c-1.316,1.173-2.405,2.732-2.839,4.499
			c-0.071,0.282-0.188,0.571-0.229,0.861c0.162,0.874,0.22,1.772,0.22,2.692c0,0.041-0.018,0.083-0.018,0.125
			c1.059,3.717,4.47,6.439,8.527,6.439c1.084,0,2.119-0.196,3.081-0.552C54.814,23.08,54.382,22.19,53.873,21.355z"/>
		<linearGradient id="SVGID_3_" gradientUnits="userSpaceOnUse" x1="43.2271" y1="16.1318" x2="55.1504" y2="16.1318">
			<stop  offset="0" style="stop-color:#F20D72"/>
			<stop  offset="0.2891" style="stop-color:#E11165"/>
			<stop  offset="0.6054" style="stop-color:#D7135D"/>
			<stop  offset="1" style="stop-color:#D4145A"/>
		</linearGradient>
		<path fill="url(#SVGID_3_)" d="M53.873,21.355c-0.746-1.223-1.666-2.328-2.725-3.283c-0.563-1.166-0.881-2.476-0.881-3.858
			c0-2.545,1.074-4.84,2.791-6.458C52.73,7.72,52.897,7.699,52.56,7.699c-0.358,0-0.56,0.023-0.56,0.065c0,0.012,0,0.023,0,0.035
			c0,1.601-1.797,2.899-3.399,2.899c-0.748,0-1.677-0.286-2.192-0.751c-1.316,1.173-2.405,2.732-2.839,4.499
			c-0.071,0.282-0.188,0.571-0.229,0.861c-0.04,0.272-0.1,0.546-0.113,0.824c0.034,0.688,0.134,1.354,0.315,1.993
			c1.059,3.717,4.47,6.439,8.527,6.439c1.084,0,2.119-0.196,3.081-0.552C54.814,23.08,54.382,22.19,53.873,21.355z"/>
		<linearGradient id="SVGID_4_" gradientUnits="userSpaceOnUse" x1="43.1968" y1="19.5059" x2="55.1465" y2="19.5059">
			<stop  offset="0" style="stop-color:#F20D72"/>
			<stop  offset="0.2891" style="stop-color:#E11165"/>
			<stop  offset="0.6054" style="stop-color:#D7135D"/>
			<stop  offset="1" style="stop-color:#D4145A"/>
		</linearGradient>
		<path fill="url(#SVGID_4_)" d="M53.873,21.355c-0.746-1.223-1.666-2.328-2.725-3.283c-2.107-1.898-4.764-3.195-7.703-3.625
			c-0.07,0.282-0.126,0.571-0.168,0.861c-0.04,0.272-0.066,0.546-0.08,0.824c0.033,0.688,0.148,1.354,0.331,1.993
			c1.058,3.717,4.477,6.439,8.533,6.439c1.085,0,2.125-0.196,3.086-0.552C54.81,23.08,54.382,22.19,53.873,21.355z"/>
		<path opacity="0.4" fill="#FBB03B" d="M52,7.799c0-0.012,0-0.023,0-0.035c-3,0.22-4.021,1.006-5.341,2.184
			c0.515,0.465,1.443,0.751,2.191,0.751C50.452,10.699,52,9.4,52,7.799z"/>
		<linearGradient id="SVGID_5_" gradientUnits="userSpaceOnUse" x1="46.6592" y1="9.2314" x2="52" y2="9.2314">
			<stop  offset="0" style="stop-color:#7B0CB1"/>
			<stop  offset="0.0503" style="stop-color:#7C0FB5"/>
			<stop  offset="0.3247" style="stop-color:#801BC6"/>
			<stop  offset="0.6254" style="stop-color:#8223D0"/>
			<stop  offset="1" style="stop-color:#8325D3"/>
		</linearGradient>
		<path fill="url(#SVGID_5_)" d="M52,7.799c0-0.012,0-0.023,0-0.035c-3,0.22-4.021,1.006-5.341,2.184
			c0.515,0.465,1.443,0.751,2.191,0.751C50.452,10.699,52,9.4,52,7.799z"/>
		<path opacity="0.2" fill="#FBB03B" d="M16.582,38.092c0.039,0.043,0.081,0.086,0.122,0.131c-0.013-0.077-0.029-0.151-0.04-0.228
			C16.635,38.028,16.608,38.06,16.582,38.092z"/>
		<linearGradient id="SVGID_6_" gradientUnits="userSpaceOnUse" x1="34.0625" y1="31.0498" x2="56.02" y2="31.0498">
			<stop  offset="0" style="stop-color:#F20D72"/>
			<stop  offset="0.2891" style="stop-color:#E11165"/>
			<stop  offset="0.6054" style="stop-color:#D7135D"/>
			<stop  offset="1" style="stop-color:#D4145A"/>
		</linearGradient>
		<path fill="url(#SVGID_6_)" d="M55.403,24.797c-1.032,0.42-2.159,0.653-3.342,0.653c-4.092,0-7.536-2.771-8.562-6.539
			c-0.261,4.203-2.306,7.92-5.388,10.405c-0.671,0.542-1.395,1.019-2.155,1.435c-0.326,0.178-0.657,0.348-0.998,0.501
			c0.176,0.589,0.315,1.191,0.415,1.807c0.124,0.765,0.192,1.549,0.192,2.348c0,2.311-0.543,4.495-1.502,6.435
			c0.48,0.272,0.979,0.515,1.49,0.732c0.566,0.239,1.151,0.448,1.75,0.616c1.542-6.37,7.277-11.101,14.12-11.101
			c1.437,0,2.826,0.211,4.135,0.6c0.302-1.175,0.464-2.405,0.464-3.674C56.02,27.549,55.801,26.134,55.403,24.797z"/>
		<linearGradient id="SVGID_7_" gradientUnits="userSpaceOnUse" x1="33.6631" y1="26.2197" x2="22.4266" y2="31.9628">
			<stop  offset="0" style="stop-color:#41C5EB"/>
			<stop  offset="0.2455" style="stop-color:#35B8E7"/>
			<stop  offset="0.5813" style="stop-color:#2CAEE3"/>
			<stop  offset="1" style="stop-color:#29ABE2"/>
		</linearGradient>
		<path fill="url(#SVGID_7_)" d="M34.923,31.144c-0.325-1.061-0.768-2.069-1.313-3.01c0.409,0.326,0.792,0.683,1.148,1.064
			c-0.62-3.48-2.947-6.367-6.09-7.761c-1.304-0.581-2.747-0.905-4.265-0.905c-0.951,0-1.871,0.129-2.746,0.365
			c-2.249,0.606-4.2,1.939-5.585,3.733c-1.373,1.778-2.192,4.004-2.192,6.426c0,0.102,0.006,0.204,0.008,0.306
			c1.217-1.506,2.911-2.608,4.858-3.067c0.598-0.141,1.218-0.22,1.854-0.233c0.063-0.001,0.125-0.005,0.189-0.005
			c2.233,0,4.273,0.827,5.832,2.188c0.742,0.647,1.373,1.415,1.866,2.274c0.688,1.195,1.104,2.563,1.167,4.022
			c0.005,0.13,0.01,0.26,0.01,0.392c0,0.149-0.004,0.297-0.011,0.445c-0.011,0.199-0.029,0.396-0.051,0.59
			c0.382,0.496,0.796,0.966,1.237,1.411c0.079-0.061,0.158-0.122,0.235-0.184c1.671-1.374,2.911-3.251,3.489-5.4
			c0.217-0.808,0.338-1.653,0.356-2.524c0.013-0.007,0.025-0.011,0.038-0.017C34.947,31.213,34.935,31.18,34.923,31.144z"/>
		<linearGradient id="SVGID_8_" gradientUnits="userSpaceOnUse" x1="16.5361" y1="33.0254" x2="29.6646" y2="33.0254">
			<stop  offset="0" style="stop-color:#45C480"/>
			<stop  offset="0.0901" style="stop-color:#37BF86"/>
			<stop  offset="0.2908" style="stop-color:#1FB590"/>
			<stop  offset="0.5022" style="stop-color:#0EAE97"/>
			<stop  offset="0.7293" style="stop-color:#03AA9C"/>
			<stop  offset="1" style="stop-color:#00A99D"/>
		</linearGradient>
		<path fill="url(#SVGID_8_)" d="M29.655,36.54c-0.063-1.459-0.48-2.827-1.167-4.022c-0.493-0.859-1.124-1.626-1.866-2.274
			c-1.559-1.361-3.599-2.188-5.832-2.188c-0.064,0-0.126,0.004-0.189,0.005c-0.378,0.296-0.735,0.614-1.069,0.956
			c-1.444,1.48-2.455,3.383-2.83,5.504c-0.107,0.599-0.165,1.215-0.165,1.845c0,0.553,0.044,1.099,0.127,1.629
			c0.695-0.824,1.539-1.522,2.491-2.048c1.272-0.705,2.734-1.107,4.291-1.107c1.93,0,3.714,0.618,5.171,1.664
			c0.058,0.097,0.116,0.193,0.175,0.289c0.252,0.405,0.523,0.795,0.812,1.172c0.022-0.194,0.041-0.391,0.051-0.59
			c0.007-0.148,0.011-0.296,0.011-0.445C29.665,36.8,29.66,36.669,29.655,36.54z"/>
		<linearGradient id="SVGID_9_" gradientUnits="userSpaceOnUse" x1="38.1851" y1="8.3428" x2="50.8599" y2="8.3428">
			<stop  offset="0" style="stop-color:#45C480"/>
			<stop  offset="0.0901" style="stop-color:#37BF86"/>
			<stop  offset="0.2908" style="stop-color:#1FB590"/>
			<stop  offset="0.5022" style="stop-color:#0EAE97"/>
			<stop  offset="0.7293" style="stop-color:#03AA9C"/>
			<stop  offset="1" style="stop-color:#00A99D"/>
		</linearGradient>
		<path fill="url(#SVGID_9_)" d="M50.721,6.557c-0.055-0.119-0.118-0.232-0.188-0.34c-0.116,0.088-0.237,0.172-0.364,0.247
			c-0.626-0.161-1.182-0.501-1.604-0.965c-0.264,0.564-0.66,1.055-1.149,1.431c-0.419-0.086-0.813-0.246-1.171-0.459
			c-0.176-0.105-0.346-0.222-0.504-0.353c-0.544-0.456-0.955-1.061-1.179-1.75c-0.021-0.067-0.044-0.132-0.062-0.2
			c0.005,0.087,0.012,0.173,0.012,0.262c0,0.725-0.084,1.401-0.428,1.983C44.023,6.518,44,6.621,44,6.719c0,0.001,0,0.001,0,0.001
			c0,0.063-0.214,0.124-0.265,0.184c-0.708,0.816-1.809,1.336-2.974,1.336c-0.818,0-1.605-0.257-2.231-0.692
			c-0.21,0.45-0.346,0.95-0.346,1.479c0,1.928,1.556,3.491,3.484,3.491c1.136,0,2.139-0.546,2.778-1.387
			c0.001-0.001,0.002-0.003,0.003-0.004c0.005-0.007,0.009-0.014,0.012-0.022c0.103-0.136,0.196-0.279,0.278-0.43
			c0.289-0.421,0.614-0.817,0.971-1.183c0.005-0.011,0.011-0.022,0.016-0.033c0.002,0.003,0.005,0.006,0.007,0.01
			c1.344-1.369,3.13-2.3,5.126-2.571C50.82,6.78,50.774,6.666,50.721,6.557z"/>
	</g>
</g>
</svg>
