<?xml version="1.0" encoding="utf-8"?>
<!-- Generator: Adobe Illustrator 16.0.3, SVG Export Plug-In . SVG Version: 6.00 Build 0)  -->
<!DOCTYPE svg PUBLIC "-//W3C//DTD SVG 1.1//EN" "http://www.w3.org/Graphics/SVG/1.1/DTD/svg11.dtd">
<svg version="1.1" id="Layer_1" xmlns="http://www.w3.org/2000/svg" xmlns:xlink="http://www.w3.org/1999/xlink" x="0px" y="0px"
	 width="199.576px" height="217.808px" viewBox="0 0 199.576 217.808" enable-background="new 0 0 199.576 217.808"
	 xml:space="preserve">
<g>
	<g>
		<path fill="none" d="M153.126,24.785c-0.019,0.047-0.043,0.087-0.067,0.136c0.028-0.032,0.061-0.064,0.099-0.095
			C153.152,24.808,153.136,24.797,153.126,24.785z"/>
		<path fill="none" d="M147.901,31.599c-2.439,2.141-5.343,3.749-8.562,4.647c1.208,2.806,2.205,5.717,2.977,8.725
			c0.262,0.032,0.542,0.064,0.804,0.104C143.815,40.199,145.476,35.644,147.901,31.599z"/>
		<path opacity="0.4" fill="#FBB03B" d="M118.708,162.585c5.193,1.455,10.657,2.25,16.302,2.25c6.062,0,11.91-0.902,17.423-2.568
			c5.322-3.854,11.299-6.854,17.738-8.787c11.239-8.106,19.569-19.987,23.116-33.796c-5.35-1.587-11.023-2.453-16.892-2.453
			C148.435,117.231,125.008,136.561,118.708,162.585z"/>
		<path opacity="0.4" fill="#FBB03B" d="M170.17,153.48c-6.439,1.932-12.416,4.932-17.738,8.787
			C158.873,160.323,164.848,157.326,170.17,153.48z"/>
		<path fill="#F20D72" d="M176.394,117.231c-27.959,0-51.386,19.33-57.687,45.354c-1.083,4.492-1.671,9.175-1.671,14.002
			c0,12.744,4.027,24.537,10.86,34.204c0-0.156-0.016-0.308-0.016-0.456c0-19.776,9.684-37.281,24.552-48.069
			c6.441-1.944,12.416-4.941,17.738-8.787c11.239-8.106,19.569-19.987,23.116-33.796
			C187.936,118.097,182.263,117.231,176.394,117.231z"/>
		
			<linearGradient id="SVGID_1_" gradientUnits="userSpaceOnUse" x1="-1980.6133" y1="107.647" x2="-2036.7184" y2="41.3408" gradientTransform="matrix(1 0 0 1 2072 0)">
			<stop  offset="0" style="stop-color:#7B0CB1"/>
			<stop  offset="0.0503" style="stop-color:#7C0FB5"/>
			<stop  offset="0.3247" style="stop-color:#801BC6"/>
			<stop  offset="0.6254" style="stop-color:#8223D0"/>
			<stop  offset="1" style="stop-color:#8325D3"/>
		</linearGradient>
		<path fill="url(#SVGID_1_)" d="M114.862,50.785c-10.58-16.306-28.936-27.099-49.818-27.099c-14.091,0-27.038,4.919-37.214,13.13
			C14.332,47.701,5.688,64.353,5.688,83.048c0,3.269,0.274,6.467,0.783,9.589c5.001-4.938,10.875-8.983,17.366-11.903
			c7.425-3.348,15.659-5.223,24.34-5.223c0.85,0,1.691,0.043,2.541,0.081c3.58-0.962,7.33-1.488,11.215-1.488
			c6.208,0,12.1,1.324,17.427,3.695c12.83,5.697,22.344,17.489,24.878,31.704c1.815,1.951,3.455,4.074,4.891,6.341
			c3.104-1.691,6.065-3.648,8.81-5.858c4.125-8.082,6.463-17.235,6.463-26.937C124.402,71.142,120.886,60.068,114.862,50.785z"/>
		<path opacity="0.4" fill="#FBB03B" d="M179.004,90.11c4.835,0,9.439-0.949,13.653-2.667c-0.32-1.08-0.663-2.148-1.046-3.207
			c-3.926,1.461-8.175,2.257-12.607,2.257c-16.573,0-30.537-11.122-34.862-26.307c-0.008,1.079-0.046,2.147-0.116,3.212
			C148.22,78.791,162.288,90.11,179.004,90.11z"/>
		<path fill="#C1272D" d="M191.611,84.237c-3.926,1.461-8.175,2.257-12.607,2.257c-16.573,0-30.537-11.122-34.862-26.307
			c-0.746-2.608-1.213-5.33-1.347-8.143c-0.024,0.602-0.048,1.201-0.048,1.804c0,3.312,0.454,6.506,1.28,9.551
			c4.194,15.391,18.262,26.71,34.978,26.71c4.835,0,9.439-0.949,13.653-2.667C192.337,86.364,191.994,85.295,191.611,84.237z"/>
		
			<linearGradient id="SVGID_2_" gradientUnits="userSpaceOnUse" x1="-1989.3018" y1="135.4482" x2="-1960.3892" y2="135.4482" gradientTransform="matrix(1 0 0 1 2072 0)">
			<stop  offset="0" style="stop-color:#F20D72"/>
			<stop  offset="0.2891" style="stop-color:#E11165"/>
			<stop  offset="0.6054" style="stop-color:#D7135D"/>
			<stop  offset="1" style="stop-color:#D4145A"/>
		</linearGradient>
		<path fill="url(#SVGID_2_)" d="M110.858,121.125c-0.874-4.285-0.871-4.46-1.724-7.309c-7.386,3.303-15.724,5.218-24.341,5.218
			c-0.703,0-1.397-0.024-2.095-0.047c2.809,4.882,4.513,10.468,4.768,16.428c0.024,0.535,0.04,1.065,0.04,1.604
			c0,0.608-0.016,1.213-0.044,1.815c-0.043,0.811-0.116,1.616-0.211,2.409c1.564,2.028,3.255,3.946,5.054,5.766
			c0.89,0.901,1.807,1.787,2.749,2.633c3.192,2.833,6.683,5.33,10.42,7.437c3.918-7.924,6.137-16.848,6.137-26.292
			C111.611,127.524,111.363,124.253,110.858,121.125z"/>
		<path opacity="0.4" fill="#FBB03B" d="M144.155,59.677c0-3.757-0.367-7.429-1.036-10.995c-0.161,1.109-0.269,2.229-0.325,3.363
			c0.134,2.813,0.601,5.534,1.347,8.143C144.142,60.016,144.155,59.845,144.155,59.677z"/>
		<path opacity="0.4" fill="#FBB03B" d="M186.407,73.386c-3.048-4.995-6.806-9.511-11.135-13.413
			c-2.302-4.764-3.602-10.114-3.602-15.759c0-10.397,4.389-19.773,11.402-26.387c-1.331-0.149-1.028-0.231-2.408-0.231
			c-1.465,0-2.665,0.096-2.665,0.262c0,0.048,0,0.096,0,0.144c0,6.542-6.963,11.85-13.51,11.85c-3.055,0-6.662-1.17-8.768-3.072
			c-5.379,4.795-9.728,11.164-11.502,18.384c-0.292,1.15-0.723,2.329-0.892,3.519c0.663,3.566,0.927,7.238,0.927,10.995
			c0,0.168-0.061,0.339-0.061,0.511c4.324,15.185,18.266,26.307,34.838,26.307c4.433,0,8.66-0.796,12.59-2.257
			C190.249,80.43,188.486,76.792,186.407,73.386z"/>
		
			<linearGradient id="SVGID_3_" gradientUnits="userSpaceOnUse" x1="-1929.1104" y1="52.0449" x2="-1880.377" y2="52.0449" gradientTransform="matrix(1 0 0 1 2072 0)">
			<stop  offset="0" style="stop-color:#F20D72"/>
			<stop  offset="0.2891" style="stop-color:#E11165"/>
			<stop  offset="0.6054" style="stop-color:#D7135D"/>
			<stop  offset="1" style="stop-color:#D4145A"/>
		</linearGradient>
		<path fill="url(#SVGID_3_)" d="M186.407,73.386c-3.048-4.995-6.806-9.511-11.135-13.413c-2.302-4.764-3.602-10.114-3.602-15.759
			c0-10.397,4.389-19.773,11.402-26.387c-1.331-0.149-1.028-0.231-2.408-0.231c-1.465,0-2.665,0.096-2.665,0.262
			c0,0.048,0,0.096,0,0.144c0,6.542-6.963,11.85-13.51,11.85c-3.055,0-6.662-1.17-8.768-3.072
			c-5.379,4.795-9.728,11.164-11.502,18.384c-0.292,1.15-0.723,2.329-0.892,3.519c-0.159,1.109-0.382,2.229-0.439,3.363
			c0.141,2.813,0.563,5.534,1.305,8.143c4.324,15.185,18.266,26.307,34.838,26.307c4.433,0,8.66-0.796,12.59-2.257
			C190.249,80.43,188.486,76.792,186.407,73.386z"/>
		
			<linearGradient id="SVGID_4_" gradientUnits="userSpaceOnUse" x1="-1929.2056" y1="65.8286" x2="-1880.3892" y2="65.8286" gradientTransform="matrix(1 0 0 1 2072 0)">
			<stop  offset="0" style="stop-color:#F20D72"/>
			<stop  offset="0.2891" style="stop-color:#E11165"/>
			<stop  offset="0.6054" style="stop-color:#D7135D"/>
			<stop  offset="1" style="stop-color:#D4145A"/>
		</linearGradient>
		<path fill="url(#SVGID_4_)" d="M186.407,73.386c-3.048-4.995-6.806-9.511-11.135-13.413c-8.605-7.756-19.465-13.055-31.464-14.81
			c-0.289,1.15-0.519,2.329-0.688,3.519c-0.161,1.109-0.269,2.229-0.325,3.363c0.134,2.813,0.601,5.534,1.347,8.143
			c4.326,15.185,18.289,26.307,34.862,26.307c4.432,0,8.681-0.796,12.607-2.257C190.239,80.43,188.486,76.792,186.407,73.386z"/>
		<path opacity="0.4" fill="#FBB03B" d="M178,18.001c0-0.048,0-0.096,0-0.144c-11,0.904-16.051,4.11-21.441,8.921
			c2.104,1.902,5.704,3.072,8.76,3.072C171.866,29.851,178,24.544,178,18.001z"/>
		
			<linearGradient id="SVGID_5_" gradientUnits="userSpaceOnUse" x1="-1915.4414" y1="23.8545" x2="-1894" y2="23.8545" gradientTransform="matrix(1 0 0 1 2072 0)">
			<stop  offset="0" style="stop-color:#7B0CB1"/>
			<stop  offset="0.0503" style="stop-color:#7C0FB5"/>
			<stop  offset="0.3247" style="stop-color:#801BC6"/>
			<stop  offset="0.6254" style="stop-color:#8223D0"/>
			<stop  offset="1" style="stop-color:#8325D3"/>
		</linearGradient>
		<path fill="url(#SVGID_5_)" d="M178,18.001c0-0.048,0-0.096,0-0.144c-11,0.904-16.051,4.11-21.441,8.921
			c2.104,1.902,5.704,3.072,8.76,3.072C171.866,29.851,178,24.544,178,18.001z"/>
		<path opacity="0.2" fill="#FBB03B" d="M34.061,141.759c0.16,0.18,0.328,0.355,0.495,0.535c-0.055-0.312-0.12-0.615-0.164-0.926
			C34.276,141.496,34.168,141.631,34.061,141.759z"/>
		
			<linearGradient id="SVGID_6_" gradientUnits="userSpaceOnUse" x1="-1966.5259" y1="112.9927" x2="-1876.8232" y2="112.9927" gradientTransform="matrix(1 0 0 1 2072 0)">
			<stop  offset="0" style="stop-color:#F20D72"/>
			<stop  offset="0.2891" style="stop-color:#E11165"/>
			<stop  offset="0.6054" style="stop-color:#D7135D"/>
			<stop  offset="1" style="stop-color:#D4145A"/>
		</linearGradient>
		<path fill="url(#SVGID_6_)" d="M192.657,87.443c-4.214,1.717-8.818,2.667-13.653,2.667c-16.716,0-30.784-11.319-34.978-26.71
			c-1.065,17.17-9.418,32.354-22.011,42.509c-2.743,2.209-5.696,4.162-8.808,5.857c-1.33,0.726-2.681,1.424-4.073,2.051
			c0.718,2.401,1.288,4.863,1.694,7.38c0.507,3.125,0.783,6.328,0.783,9.591c0,9.444-2.219,18.368-6.137,26.292
			c1.963,1.109,3.999,2.103,6.09,2.989c2.309,0.976,4.699,1.83,7.144,2.517c6.301-26.024,29.728-45.354,57.687-45.354
			c5.869,0,11.542,0.866,16.892,2.453c1.233-4.799,1.891-9.825,1.891-15.012C195.177,98.687,194.284,92.907,192.657,87.443z"/>
		
			<linearGradient id="SVGID_7_" gradientUnits="userSpaceOnUse" x1="-1968.1577" y1="93.2563" x2="-2014.062" y2="116.7186" gradientTransform="matrix(1 0 0 1 2072 0)">
			<stop  offset="0" style="stop-color:#41C5EB"/>
			<stop  offset="0.2455" style="stop-color:#35B8E7"/>
			<stop  offset="0.5813" style="stop-color:#2CAEE3"/>
			<stop  offset="1" style="stop-color:#29ABE2"/>
		</linearGradient>
		<path fill="url(#SVGID_7_)" d="M108.99,113.373c-1.329-4.336-3.137-8.454-5.366-12.296c1.673,1.334,3.239,2.789,4.692,4.346
			c-2.53-14.215-12.042-26.008-24.88-31.701c-5.322-2.373-11.219-3.699-17.423-3.699c-3.886,0-7.64,0.527-11.214,1.487
			c-9.193,2.482-17.16,7.924-22.822,15.253c-5.608,7.265-8.952,16.362-8.952,26.253c0,0.417,0.024,0.833,0.032,1.248
			c4.971-6.153,11.893-10.656,19.843-12.527c2.443-0.574,4.979-0.901,7.574-0.958c0.258,0,0.509-0.019,0.773-0.019
			c9.125,0,17.458,3.379,23.825,8.94c3.033,2.641,5.609,5.777,7.625,9.288c2.809,4.882,4.513,10.468,4.768,16.428
			c0.024,0.535,0.04,1.065,0.04,1.604c0,0.608-0.016,1.213-0.044,1.815c-0.043,0.811-0.116,1.616-0.211,2.409
			c1.564,2.028,3.255,3.946,5.054,5.766c0.323-0.249,0.643-0.503,0.963-0.75c6.828-5.615,11.892-13.286,14.252-22.062
			c0.888-3.304,1.385-6.759,1.458-10.313c0.057-0.028,0.105-0.046,0.156-0.068C109.088,113.656,109.037,113.521,108.99,113.373z"/>
		
			<linearGradient id="SVGID_8_" gradientUnits="userSpaceOnUse" x1="-2038.126" y1="121.0635" x2="-1984.4937" y2="121.0635" gradientTransform="matrix(1 0 0 1 2072 0)">
			<stop  offset="0" style="stop-color:#45C480"/>
			<stop  offset="0.0901" style="stop-color:#37BF86"/>
			<stop  offset="0.2908" style="stop-color:#1FB590"/>
			<stop  offset="0.5022" style="stop-color:#0EAE97"/>
			<stop  offset="0.7293" style="stop-color:#03AA9C"/>
			<stop  offset="1" style="stop-color:#00A99D"/>
		</linearGradient>
		<path fill="url(#SVGID_8_)" d="M87.466,135.416c-0.255-5.96-1.959-11.546-4.768-16.428c-2.016-3.511-4.592-6.647-7.625-9.288
			c-6.367-5.562-14.7-8.94-23.825-8.94c-0.264,0-0.515,0.019-0.773,0.019c-1.545,1.213-3.001,2.51-4.365,3.906
			c-5.902,6.045-10.03,13.821-11.563,22.49c-0.438,2.446-0.673,4.963-0.673,7.536c0,2.262,0.179,4.49,0.518,6.659
			c2.841-3.367,6.289-6.22,10.179-8.37c5.194-2.88,11.165-4.521,17.525-4.521c7.885,0,15.174,2.525,21.126,6.799
			c0.24,0.394,0.471,0.788,0.715,1.177c1.033,1.659,2.137,3.247,3.314,4.791c0.096-0.793,0.168-1.599,0.211-2.409
			c0.028-0.603,0.044-1.208,0.044-1.815C87.506,136.48,87.49,135.951,87.466,135.416z"/>
		
			<linearGradient id="SVGID_9_" gradientUnits="userSpaceOnUse" x1="-1949.7485" y1="20.2236" x2="-1897.9038" y2="20.2236" gradientTransform="matrix(1 0 0 1 2072 0)">
			<stop  offset="0" style="stop-color:#45C480"/>
			<stop  offset="0.0901" style="stop-color:#37BF86"/>
			<stop  offset="0.2908" style="stop-color:#1FB590"/>
			<stop  offset="0.5022" style="stop-color:#0EAE97"/>
			<stop  offset="0.7293" style="stop-color:#03AA9C"/>
			<stop  offset="1" style="stop-color:#00A99D"/>
		</linearGradient>
		<path fill="url(#SVGID_9_)" d="M173.53,12.927c-0.223-0.486-0.48-0.949-0.767-1.387c-0.48,0.357-0.975,0.702-1.488,1.004
			c-2.558-0.655-4.827-2.047-6.551-3.941c-1.081,2.305-2.697,4.308-4.695,5.848c-1.713-0.35-3.32-1.004-4.779-1.874
			c-0.723-0.432-1.417-0.909-2.063-1.444c-2.224-1.858-3.899-4.333-4.816-7.145c-0.089-0.276-0.184-0.539-0.255-0.819
			c0.024,0.36,0.051,0.711,0.051,1.07c0,2.959-0.879,5.725-2.283,8.098C145.633,12.768,145,13.19,145,13.588v0.011
			c0,0.254-0.338,0.504-0.543,0.749c-2.892,3.334-7.121,5.457-11.88,5.457c-3.344,0-6.426-1.049-8.979-2.824
			c-0.862,1.834-1.345,3.879-1.345,6.041c0,7.875,6.387,14.258,14.266,14.258c4.639,0,8.753-2.229,11.367-5.666l0.015-0.015
			c0.024-0.032,0.044-0.057,0.056-0.089c0.418-0.559,0.804-1.142,1.139-1.759c1.182-1.72,2.508-3.34,3.968-4.831
			c0.02-0.048,0.044-0.088,0.063-0.136c0.01,0.012,0.026,0.023,0.032,0.041c5.49-5.595,12.783-9.4,20.938-10.502
			C173.936,13.841,173.747,13.374,173.53,12.927z"/>
	</g>
	<ellipse fill="#E6E6E6" cx="132.1" cy="210.383" rx="54.386" ry="4.065"/>
</g>
</svg>
