<?xml version="1.0" encoding="utf-8"?>
<!-- Generator: Adobe Illustrator 16.0.3, SVG Export Plug-In . SVG Version: 6.00 Build 0)  -->
<!DOCTYPE svg PUBLIC "-//W3C//DTD SVG 1.1//EN" "http://www.w3.org/Graphics/SVG/1.1/DTD/svg11.dtd">
<svg version="1.1" id="Layer_1" xmlns="http://www.w3.org/2000/svg" xmlns:xlink="http://www.w3.org/1999/xlink" x="0px" y="0px"
	 width="263.971px" height="212px" viewBox="0 0 263.971 212" enable-background="new 0 0 263.971 212" xml:space="preserve">
<g>
	<path fill="#E6E6E6" d="M17.02,5.087c-2.379,0-4.328,1.895-4.328,4.256c0,1.518,0.805,2.842,2.012,3.594
		c-3.381,1.022-5.887,4.203-6.179,7.789c-0.063,0.776,0.573,1.361,1.282,1.361h14.427c0.708,0,1.347-0.585,1.282-1.361
		c-0.293-3.588-2.8-6.768-6.181-7.789c1.207-0.752,2.013-2.077,2.013-3.594C21.348,6.982,19.398,5.087,17.02,5.087z M14.003,9.343
		c0-1.617,1.339-2.946,3.018-2.946c1.678,0,3.017,1.329,3.017,2.946c0,1.615-1.339,2.945-3.017,2.945
		C15.342,12.288,14.003,10.958,14.003,9.343z M10.609,20.778c-0.415,0-0.744-0.356-0.665-0.766c0.659-3.391,3.604-6.107,7.075-6.107
		c3.473,0,6.417,2.717,7.076,6.107c0.079,0.409-0.25,0.766-0.666,0.766H10.609z"/>
</g>
<g id="_1_1_">
	<path fill="#E6E6E6" d="M59.125,22.126c-0.664-0.003-1.321-0.086-1.966-0.247c-2.224-0.536-4.512-1.896-6.443-3.83
		c-1.933-1.934-3.294-4.223-3.829-6.442c-0.565-2.335-0.162-4.335,1.131-5.629l0.372-0.37c0.695-0.696,1.826-0.696,2.524,0
		l2.125,2.125c0.699,0.698,0.699,1.828,0,2.526l-1.253,1.256c0.603,1.054,1.419,2.11,2.385,3.078
		c0.968,0.966,2.024,1.785,3.08,2.387l1.253-1.255c0.698-0.698,1.831-0.698,2.528-0.002v0.002l2.123,2.124
		c0.699,0.698,0.699,1.828,0,2.526l-0.37,0.37C61.873,21.659,60.607,22.126,59.125,22.126z M49.65,6.358
		c-0.135-0.002-0.269,0.053-0.364,0.149l-0.368,0.371c-0.97,0.969-1.255,2.542-0.799,4.429c0.481,1.997,1.721,4.073,3.494,5.843
		c1.771,1.771,3.845,3.01,5.843,3.493c1.886,0.457,3.459,0.172,4.428-0.796l0.372-0.371c0.199-0.201,0.199-0.527,0-0.728
		l-2.125-2.125c-0.201-0.202-0.526-0.202-0.726,0l-1.593,1.591c-0.196,0.196-0.495,0.242-0.741,0.115
		c-1.303-0.675-2.618-1.656-3.801-2.836c-1.183-1.184-2.16-2.498-2.836-3.801c-0.127-0.247-0.082-0.546,0.114-0.741l1.593-1.59
		c0.201-0.201,0.201-0.527,0-0.728l-2.125-2.125C49.921,6.412,49.789,6.358,49.65,6.358z"/>
	<path fill="#E6E6E6" d="M59.804,14.485c-0.352,0-0.636-0.286-0.636-0.637l0,0c-0.004-2.322-1.886-4.204-4.21-4.207
		c-0.349,0-0.634-0.285-0.634-0.636c0-0.35,0.285-0.636,0.634-0.636l0,0c3.024,0,5.48,2.459,5.48,5.479
		C60.439,14.199,60.155,14.485,59.804,14.485L59.804,14.485z"/>
	<path fill="#E6E6E6" d="M62.49,14.485c-0.352,0-0.638-0.286-0.638-0.637l0,0c0-3.802-3.091-6.895-6.895-6.895
		c-0.349,0-0.634-0.285-0.634-0.634c0-0.352,0.285-0.638,0.634-0.638l0,0c4.505,0,8.167,3.665,8.167,8.167
		C63.126,14.199,62.843,14.485,62.49,14.485L62.49,14.485z"/>
</g>
<path fill="#E6E6E6" d="M36.765,54.179c0.157-0.068,0.274-0.207,0.317-0.373c1.93-7.271-2.401-14.729-9.674-16.656
	c-7.271-1.929-14.729,2.402-16.657,9.674c-1.929,7.271,2.403,14.729,9.674,16.657c2.209,0.585,4.53,0.606,6.749,0.06
	c0.304-0.074,0.489-0.379,0.416-0.682c-0.005-0.02-0.01-0.039-0.017-0.057c-0.463-1.238-0.145-2.631,0.809-3.546
	c0.13-0.143,0.188-0.335,0.157-0.524c-0.024-0.148-0.041-0.299-0.045-0.449c-0.003-1.852,1.481-3.363,3.333-3.395l0.086-0.558
	v-0.026l0.004,0.004l-0.004,0.022l0.028,0.569c0.146,0,0.29-0.06,0.396-0.163c1.044-1.035,2.642-1.267,3.937-0.573
	C36.427,54.241,36.608,54.249,36.765,54.179z M23.976,37.938c3.667,0,7.146,1.623,9.504,4.434c-0.875,0.982-1.625,0.73-2.556,0.396
	c-0.411-0.176-0.852-0.28-1.299-0.308c-0.595,0.041-1.146,0.322-1.53,0.779c-0.61,0.643-1.028,1.445-1.209,2.313
	c-0.875-0.54-1.883-0.828-2.911-0.833c-3.111-0.01-5.643,2.504-5.652,5.616c-0.006,2.013,1.062,3.875,2.802,4.888
	c-0.057,0.523-0.286,1.014-0.65,1.394c-0.262,0.302-0.625,0.492-1.021,0.536c-0.215,0-0.445-0.02-0.686-0.04
	c-1.543-0.288-3.129,0.211-4.229,1.331c-4.468-5.203-3.872-13.043,1.331-17.51C18.126,38.998,21.002,37.935,23.976,37.938z
	 M19.454,50.372c0-2.497,2.025-4.521,4.521-4.521s4.521,2.024,4.521,4.521c0,2.496-2.023,4.521-4.521,4.521
	C21.48,54.89,19.458,52.868,19.454,50.372z M31.724,53.766c-2.432,0.091-4.355,2.086-4.357,4.517
	c0.001,0.127,0.01,0.254,0.025,0.377c-0.747,0.826-1.158,1.901-1.156,3.015c0.001,0.3,0.033,0.601,0.099,0.894
	c-0.776,0.156-1.565,0.234-2.358,0.236c-3.242,0.002-6.354-1.27-8.67-3.537c0.008-0.008,0.019-0.011,0.026-0.019
	c0.867-0.888,2.128-1.269,3.341-1.009c0.274,0.023,0.535,0.043,0.78,0.043c0.703-0.037,1.362-0.353,1.832-0.878
	c0.453-0.472,0.765-1.06,0.903-1.698c0.574,0.202,1.178,0.309,1.787,0.316c3.118,0.005,5.646-2.521,5.65-5.639
	c0.002-1.516-0.605-2.971-1.688-4.033c0.028-0.867,0.374-1.693,0.969-2.325c0.18-0.228,0.436-0.382,0.721-0.437
	c0.316,0.035,0.625,0.116,0.917,0.242c1.198,0.646,2.68,0.42,3.63-0.553c1.456,2.078,2.236,4.556,2.235,7.094
	c-0.003,0.842-0.091,1.68-0.267,2.504C34.617,52.354,32.929,52.694,31.724,53.766z"/>
<path fill="#E6E6E6" d="M104.746,7.075h-5.368v1.432h5.368V7.075z M108.325,6.897v4.92l-11.229,1.986l-2.192-8.697h-3.355
	c-0.493,0-0.895,0.402-0.895,0.895c0,0.494,0.4,0.896,0.895,0.896h1.986l2.891,11.631h11.899v-1.789H97.82l-0.295-1.189
	l12.589-2.229V6.897H108.325z M96.693,19.423c-0.74,0-1.342,0.602-1.342,1.342c0,0.74,0.602,1.342,1.342,1.342
	c0.741,0,1.343-0.602,1.343-1.342C98.036,20.025,97.435,19.423,96.693,19.423z M107.43,19.423c-0.74,0-1.342,0.602-1.342,1.342
	c0,0.74,0.602,1.342,1.342,1.342c0.741,0,1.343-0.602,1.343-1.342C108.773,20.025,108.172,19.423,107.43,19.423z"/>
<g>
	
		<linearGradient id="SVGID_1_" gradientUnits="userSpaceOnUse" x1="308.5193" y1="141.2412" x2="318.0857" y2="141.2412" gradientTransform="matrix(1 0 0 -1 -100.9902 155.4004)">
		<stop  offset="0" style="stop-color:#45C480"/>
		<stop  offset="0.0901" style="stop-color:#37BF86"/>
		<stop  offset="0.2908" style="stop-color:#1FB590"/>
		<stop  offset="0.5022" style="stop-color:#0EAE97"/>
		<stop  offset="0.7293" style="stop-color:#03AA9C"/>
		<stop  offset="1" style="stop-color:#00A99D"/>
	</linearGradient>
	<path fill="url(#SVGID_1_)" d="M207.705,14.504c-0.234-0.234-0.234-0.617,0-0.852c0.236-0.236,0.617-0.236,0.854,0l2.422,2.421
		l5.084-5.086c0.235-0.235,0.617-0.235,0.854,0c0.237,0.235,0.236,0.617,0,0.853l-5.476,5.477c-0.256,0.256-0.67,0.256-0.925,0
		L207.705,14.504z"/>
	
		<linearGradient id="SVGID_2_" gradientUnits="userSpaceOnUse" x1="304.9998" y1="140.916" x2="321.9998" y2="140.916" gradientTransform="matrix(1 0 0 -1 -100.9902 155.4004)">
		<stop  offset="0" style="stop-color:#45C480"/>
		<stop  offset="0.0901" style="stop-color:#37BF86"/>
		<stop  offset="0.2908" style="stop-color:#1FB590"/>
		<stop  offset="0.5022" style="stop-color:#0EAE97"/>
		<stop  offset="0.7293" style="stop-color:#03AA9C"/>
		<stop  offset="1" style="stop-color:#00A99D"/>
	</linearGradient>
	<path fill="url(#SVGID_2_)" d="M212.51,5.985c-4.694,0-8.5,3.806-8.5,8.5c0,4.694,3.806,8.5,8.5,8.5c4.693,0,8.5-3.806,8.5-8.5
		C221.01,9.791,217.203,5.985,212.51,5.985z M205.316,14.485c0-3.973,3.221-7.192,7.192-7.192c3.973,0,7.191,3.22,7.191,7.192
		c0,3.972-3.219,7.192-7.191,7.192C208.537,21.677,205.316,18.458,205.316,14.485z"/>
</g>
<g>
	
		<linearGradient id="SVGID_3_" gradientUnits="userSpaceOnUse" x1="111.7556" y1="42.8926" x2="172.74" y2="42.8926" gradientTransform="matrix(1 0 0 -1 -100.9902 155.4004)">
		<stop  offset="0" style="stop-color:#45C480"/>
		<stop  offset="0.0901" style="stop-color:#37BF86"/>
		<stop  offset="0.2908" style="stop-color:#1FB590"/>
		<stop  offset="0.5022" style="stop-color:#0EAE97"/>
		<stop  offset="0.7293" style="stop-color:#03AA9C"/>
		<stop  offset="1" style="stop-color:#00A99D"/>
	</linearGradient>
	<path fill="url(#SVGID_3_)" d="M41.258,143c-16.813,0-30.492-13.68-30.492-30.492c0-16.814,13.679-30.493,30.492-30.493
		S71.75,95.694,71.75,112.508C71.75,129.32,58.071,143,41.258,143z M41.258,87.015c-14.057,0-25.492,11.437-25.492,25.493
		c0,14.057,11.436,25.492,25.492,25.492c14.058,0,25.492-11.436,25.492-25.492C66.75,98.452,55.314,87.015,41.258,87.015z"/>
</g>
<g>
	
		<linearGradient id="SVGID_4_" gradientUnits="userSpaceOnUse" x1="240.7449" y1="-22.1074" x2="301.7292" y2="-22.1074" gradientTransform="matrix(-1 0 0 -1 312.4956 155.4004)">
		<stop  offset="0" style="stop-color:#41C5EB"/>
		<stop  offset="0.2455" style="stop-color:#35B8E7"/>
		<stop  offset="0.5813" style="stop-color:#2CAEE3"/>
		<stop  offset="1" style="stop-color:#29ABE2"/>
	</linearGradient>
	<path fill="url(#SVGID_4_)" d="M10.766,177.508c0-16.814,13.679-30.492,30.491-30.492c16.814,0,30.493,13.678,30.493,30.492
		C71.751,194.32,58.072,208,41.258,208C24.444,208,10.766,194.32,10.766,177.508z M15.766,177.508
		c0,14.057,11.436,25.492,25.491,25.492c14.057,0,25.493-11.436,25.493-25.492c0-14.056-11.437-25.492-25.493-25.492
		C27.202,152.016,15.766,163.451,15.766,177.508z"/>
</g>
<polyline fill="none" stroke="#121332" stroke-width="2" stroke-miterlimit="10" points="111.511,104.691 103.882,112.959 
	111.511,121.855 "/>
<polyline fill="none" stroke="#121332" stroke-width="2" stroke-miterlimit="10" points="147.882,104.691 155.511,112.959 
	147.882,121.855 "/>
<polyline fill="none" stroke="#121332" stroke-width="2" stroke-miterlimit="10" points="121.113,131.459 129.381,139.088 
	138.279,131.459 "/>
<polyline fill="none" stroke="#121332" stroke-width="2" stroke-miterlimit="10" points="121.113,95.088 129.381,87.459 
	138.279,95.088 "/>
<path fill="#121332" d="M173.403,51.99c-0.235-0.234-0.235-0.617,0-0.852c0.236-0.236,0.617-0.236,0.853,0l2.423,2.421l5.085-5.086
	c0.235-0.235,0.616-0.235,0.854,0c0.234,0.235,0.234,0.617,0,0.853l-5.477,5.477c-0.257,0.256-0.67,0.256-0.926,0L173.403,51.99z"/>
<polyline fill="none" stroke="#121332" stroke-width="1.5" stroke-miterlimit="10" points="122.602,175.18 118.629,179.482 
	122.602,184.116 "/>
<polyline fill="none" stroke="#121332" stroke-width="1.5" stroke-miterlimit="10" points="141.539,175.18 145.511,179.482 
	141.539,184.116 "/>
<polyline fill="none" stroke="#121332" stroke-width="1.5" stroke-miterlimit="10" points="127.602,189.116 131.906,193.088 
	136.539,189.116 "/>
<polyline fill="none" stroke="#121332" stroke-width="1.5" stroke-miterlimit="10" points="127.602,170.18 131.906,166.207 
	136.539,170.18 "/>
<g id="mail_email_e-mail_letter_2_">
	<path fill="#E6E6E6" d="M151.153,11.955c-0.432,0-0.782,0.351-0.782,0.781v6.246c0,0.432-0.347,0.781-0.779,0.781h-15.612
		c-0.434,0-0.78-0.35-0.78-0.781v-6.246c0-0.431-0.351-0.781-0.782-0.781c-0.431,0-0.781,0.351-0.781,0.781v6.246
		c0.003,0.622,0.249,1.218,0.688,1.656c0.439,0.438,1.036,0.686,1.657,0.686h15.612c0.622,0,1.217-0.248,1.656-0.686
		s0.686-1.035,0.688-1.656v-6.246C151.935,12.306,151.585,11.955,151.153,11.955z"/>
	<path fill="#E6E6E6" d="M141.316,16.484c0.276,0.208,0.661,0.208,0.938,0l9.222-6.916c0.296-0.224,0.394-0.626,0.232-0.961
		c-0.115-0.24-0.271-0.459-0.46-0.648c-0.438-0.438-1.034-0.686-1.656-0.686h-15.612c-0.621,0-1.217,0.248-1.657,0.686
		c-0.188,0.189-0.343,0.408-0.459,0.648c-0.161,0.335-0.062,0.737,0.234,0.961L141.316,16.484z M133.979,8.833h15.612
		c0.073-0.011,0.146-0.011,0.219,0l-8.025,6.051l-8.026-6.051C133.834,8.822,133.906,8.822,133.979,8.833z"/>
</g>
<path fill="#121332" d="M78.746,54.179c0.158-0.068,0.275-0.207,0.318-0.373c1.929-7.271-2.402-14.729-9.674-16.657
	c-7.271-1.928-14.729,2.403-16.656,9.675c-1.93,7.271,2.402,14.729,9.674,16.657c2.209,0.585,4.529,0.606,6.749,0.06
	c0.303-0.074,0.489-0.379,0.416-0.682c-0.005-0.02-0.01-0.039-0.017-0.057c-0.464-1.238-0.146-2.631,0.809-3.546
	c0.129-0.143,0.187-0.335,0.157-0.524c-0.025-0.148-0.041-0.299-0.045-0.449c-0.003-1.852,1.48-3.363,3.333-3.395l0.086-0.558
	v-0.026l0.004,0.004l-0.004,0.022l0.027,0.568c0.147,0,0.29-0.059,0.396-0.162c1.044-1.035,2.641-1.267,3.936-0.573
	C78.408,54.241,78.589,54.249,78.746,54.179z M65.957,37.938c3.667,0,7.146,1.623,9.504,4.434c-0.875,0.982-1.625,0.73-2.555,0.396
	c-0.412-0.176-0.852-0.28-1.299-0.308c-0.595,0.041-1.146,0.322-1.531,0.779c-0.61,0.643-1.028,1.445-1.209,2.313
	c-0.875-0.54-1.883-0.828-2.91-0.833c-3.11-0.01-5.643,2.504-5.651,5.616c-0.007,2.013,1.063,3.875,2.803,4.888
	c-0.058,0.523-0.287,1.014-0.652,1.394c-0.261,0.302-0.625,0.492-1.02,0.536c-0.216,0-0.445-0.02-0.688-0.04
	c-1.544-0.288-3.129,0.211-4.229,1.331c-4.467-5.203-3.871-13.043,1.332-17.51C60.107,38.998,62.983,37.935,65.957,37.938z
	 M61.436,50.372c0-2.497,2.023-4.521,4.521-4.521c2.496,0,4.521,2.024,4.521,4.521c0,2.496-2.024,4.521-4.521,4.521
	C63.461,54.89,61.438,52.868,61.436,50.372z M73.705,53.766c-2.431,0.091-4.354,2.086-4.356,4.517
	c0.001,0.127,0.01,0.254,0.024,0.377c-0.747,0.826-1.158,1.901-1.156,3.015c0.001,0.3,0.033,0.601,0.1,0.894
	c-0.777,0.156-1.566,0.234-2.358,0.236c-3.242,0.002-6.354-1.27-8.67-3.537c0.008-0.008,0.02-0.011,0.027-0.019
	c0.867-0.888,2.128-1.269,3.341-1.009c0.274,0.023,0.534,0.043,0.78,0.043c0.703-0.037,1.36-0.353,1.831-0.878
	c0.453-0.472,0.765-1.06,0.902-1.698c0.574,0.202,1.179,0.309,1.787,0.316c3.117,0.005,5.646-2.521,5.65-5.639
	c0.002-1.516-0.606-2.971-1.689-4.033c0.029-0.867,0.374-1.693,0.97-2.325c0.18-0.228,0.436-0.382,0.721-0.437
	c0.315,0.035,0.625,0.116,0.917,0.242c1.198,0.646,2.679,0.42,3.63-0.553c1.456,2.078,2.236,4.556,2.235,7.094
	c-0.003,0.842-0.092,1.68-0.268,2.504C76.598,52.354,74.91,52.694,73.705,53.766z"/>
<g>
	<path fill="#E6E6E6" d="M116.761,50.088c0.729-0.729,0.729-1.911,0-2.641c-0.729-0.729-1.912-0.729-2.643,0
		c-0.729,0.729-0.729,1.912,0,2.641C114.849,50.819,116.031,50.819,116.761,50.088z M115.983,48.225
		c0.299,0.301,0.299,0.786,0,1.086c-0.301,0.3-0.786,0.3-1.086,0s-0.3-0.785,0-1.086C115.197,47.926,115.683,47.926,115.983,48.225z
		"/>
	<path fill="#E6E6E6" d="M102.957,52.68c-0.537,0.537-0.537,1.408,0,1.945l6.626,6.625c0.537,0.537,1.407,0.537,1.944,0l8.538-8.538
		c0.258-0.259,0.401-0.608,0.401-0.973v-6.626c0-0.759-0.614-1.375-1.375-1.375h-6.625c-0.363,0-0.714,0.145-0.973,0.403
		L102.957,52.68z M111.042,59.792c-0.269,0.269-0.705,0.269-0.974,0l-5.651-5.651c-0.269-0.269-0.269-0.705,0-0.974l7.851-7.851
		c0.129-0.13,0.304-0.202,0.485-0.202h5.65c0.381,0,0.688,0.309,0.688,0.689v5.651c0,0.183-0.071,0.358-0.2,0.487L111.042,59.792z"
		/>
</g>
<g>
	
		<linearGradient id="SVGID_5_" gradientUnits="userSpaceOnUse" x1="342.2693" y1="144.1846" x2="347.3035" y2="144.1846" gradientTransform="matrix(1 0 0 -1 -100.9902 155.4004)">
		<stop  offset="0" style="stop-color:#41C5EB"/>
		<stop  offset="0.2455" style="stop-color:#35B8E7"/>
		<stop  offset="0.5813" style="stop-color:#2CAEE3"/>
		<stop  offset="1" style="stop-color:#29ABE2"/>
	</linearGradient>
	<path fill="url(#SVGID_5_)" d="M243.796,8.698c-1.391,0-2.517,1.128-2.517,2.519c0,1.39,1.125,2.517,2.517,2.517
		c1.391,0,2.518-1.127,2.518-2.517C246.313,9.826,245.187,8.698,243.796,8.698z M242.39,11.216c0-0.776,0.629-1.405,1.405-1.405
		s1.406,0.629,1.406,1.405c0,0.776-0.63,1.405-1.406,1.405C243.02,12.622,242.39,11.993,242.39,11.216z"/>
	<g>
		<path fill="none" d="M252.951,7h-13.078C239.512,7,239,7.586,239,7.948v11.26l10.28-6.464c0.46-0.308,1.318-0.291,1.763,0.042
			L254,15.129V7.948C254,7.586,253.311,7,252.951,7z"/>
		
			<linearGradient id="SVGID_6_" gradientUnits="userSpaceOnUse" x1="338.99" y1="140.9004" x2="355.99" y2="140.9004" gradientTransform="matrix(1 0 0 -1 -100.9902 155.4004)">
			<stop  offset="0" style="stop-color:#41C5EB"/>
			<stop  offset="0.2455" style="stop-color:#35B8E7"/>
			<stop  offset="0.5813" style="stop-color:#2CAEE3"/>
			<stop  offset="1" style="stop-color:#29ABE2"/>
		</linearGradient>
		<path fill="url(#SVGID_6_)" d="M255,7.963C255,6.879,254.122,6,253.039,6h-13.078C238.878,6,238,6.879,238,7.963v13.074
			c0,1.084,0.878,1.963,1.961,1.963h13.078c1.083,0,1.961-0.879,1.961-1.963V7.963z M254,21.024c0,0.361-0.688,0.976-1.049,0.976
			h-13.078c-0.36,0-0.873-0.615-0.873-0.976v-0.268l10.596-6.664c0.242-0.154,0.813-0.131,1.03,0.059L254,16.855V21.024z
			 M254,15.129l-2.901-2.344c-0.444-0.333-1.259-0.35-1.719-0.042L239,19.208V7.948C239,7.586,239.512,7,239.873,7h13.078
			C253.311,7,254,7.586,254,7.948V15.129z"/>
	</g>
</g>
<g>
	<linearGradient id="SVGID_7_" gradientUnits="userSpaceOnUse" x1="241.9207" y1="171.1504" x2="251.075" y2="171.1504">
		<stop  offset="0" style="stop-color:#7B0CB1"/>
		<stop  offset="0.0503" style="stop-color:#7C0FB5"/>
		<stop  offset="0.3247" style="stop-color:#801BC6"/>
		<stop  offset="0.6254" style="stop-color:#8223D0"/>
		<stop  offset="1" style="stop-color:#8325D3"/>
	</linearGradient>
	<path fill="url(#SVGID_7_)" d="M241.921,171.019c0-0.288,0.234-0.522,0.524-0.522h3.399v-3.4c0-0.145,0.058-0.274,0.152-0.369
		c0.094-0.096,0.226-0.154,0.371-0.154h0.261c0.29,0,0.523,0.234,0.523,0.523v3.4h3.399c0.166,0,0.313,0.077,0.408,0.196
		c0.073,0.089,0.115,0.203,0.115,0.326v0.262c0,0.289-0.233,0.523-0.523,0.523h-3.399v3.4c0,0.113-0.036,0.217-0.097,0.303
		c-0.095,0.133-0.25,0.221-0.427,0.221h-0.261c-0.289,0-0.523-0.234-0.523-0.523v-3.4h-3.399c-0.165,0-0.312-0.076-0.407-0.193
		c-0.073-0.091-0.117-0.205-0.117-0.33V171.019z"/>
	<linearGradient id="SVGID_8_" gradientUnits="userSpaceOnUse" x1="237.9988" y1="171.1484" x2="254.9988" y2="171.1484">
		<stop  offset="0" style="stop-color:#7B0CB1"/>
		<stop  offset="0.0503" style="stop-color:#7C0FB5"/>
		<stop  offset="0.3247" style="stop-color:#801BC6"/>
		<stop  offset="0.6254" style="stop-color:#8223D0"/>
		<stop  offset="1" style="stop-color:#8325D3"/>
	</linearGradient>
	<path fill="url(#SVGID_8_)" d="M237.999,171.149c0-4.694,3.805-8.5,8.5-8.5c4.693,0,8.5,3.806,8.5,8.5
		c0,4.695-3.807,8.499-8.5,8.499C241.803,179.648,237.999,175.845,237.999,171.149z M246.499,163.957
		c-3.973,0-7.193,3.221-7.193,7.192c0,3.973,3.221,7.192,7.193,7.192c3.971,0,7.191-3.22,7.191-7.192
		C253.69,167.178,250.469,163.957,246.499,163.957z"/>
</g>
<g>
	<linearGradient id="SVGID_9_" gradientUnits="userSpaceOnUse" x1="237.9998" y1="60.1465" x2="255.0007" y2="60.1465">
		<stop  offset="0" style="stop-color:#7B0CB1"/>
		<stop  offset="0.0503" style="stop-color:#7C0FB5"/>
		<stop  offset="0.3247" style="stop-color:#801BC6"/>
		<stop  offset="0.6254" style="stop-color:#8223D0"/>
		<stop  offset="1" style="stop-color:#8325D3"/>
	</linearGradient>
	<path fill="url(#SVGID_9_)" d="M246.5,51.646c-2.379,0-4.328,1.894-4.328,4.255c0,1.518,0.805,2.842,2.012,3.595
		c-3.381,1.022-5.887,4.202-6.179,7.788c-0.063,0.777,0.573,1.362,1.282,1.362h14.427c0.708,0,1.347-0.585,1.282-1.362
		c-0.293-3.587-2.799-6.768-6.18-7.789c1.207-0.752,2.012-2.077,2.012-3.594C250.828,53.541,248.879,51.646,246.5,51.646z
		 M243.483,55.902c0-1.616,1.339-2.946,3.017-2.946s3.017,1.33,3.017,2.946c0,1.616-1.339,2.946-3.017,2.946
		S243.483,57.518,243.483,55.902z M240.09,67.337c-0.415,0-0.744-0.357-0.665-0.766c0.659-3.391,3.604-6.107,7.075-6.107
		c3.473,0,6.417,2.717,7.076,6.107c0.08,0.408-0.25,0.766-0.666,0.766H240.09z"/>
</g>
<g>
	<linearGradient id="SVGID_10_" gradientUnits="userSpaceOnUse" x1="241.5193" y1="119.8213" x2="251.0847" y2="119.8213">
		<stop  offset="0" style="stop-color:#7B0CB1"/>
		<stop  offset="0.0503" style="stop-color:#7C0FB5"/>
		<stop  offset="0.3247" style="stop-color:#801BC6"/>
		<stop  offset="0.6254" style="stop-color:#8223D0"/>
		<stop  offset="1" style="stop-color:#8325D3"/>
	</linearGradient>
	<path fill="url(#SVGID_10_)" d="M241.696,120.166c-0.235-0.234-0.235-0.617,0-0.852c0.236-0.236,0.617-0.236,0.853,0l2.422,2.421
		l5.085-5.086c0.236-0.235,0.617-0.235,0.854,0c0.235,0.235,0.235,0.617,0,0.853l-5.477,5.477c-0.256,0.256-0.67,0.256-0.925,0
		L241.696,120.166z"/>
	<linearGradient id="SVGID_11_" gradientUnits="userSpaceOnUse" x1="238.0007" y1="120.1465" x2="255.0007" y2="120.1465">
		<stop  offset="0" style="stop-color:#7B0CB1"/>
		<stop  offset="0.0503" style="stop-color:#7C0FB5"/>
		<stop  offset="0.3247" style="stop-color:#801BC6"/>
		<stop  offset="0.6254" style="stop-color:#8223D0"/>
		<stop  offset="1" style="stop-color:#8325D3"/>
	</linearGradient>
	<path fill="url(#SVGID_11_)" d="M246.501,111.646c-4.695,0-8.5,3.806-8.5,8.5s3.805,8.5,8.5,8.5c4.693,0,8.5-3.806,8.5-8.5
		S251.194,111.646,246.501,111.646z M239.307,120.146c0-3.973,3.221-7.192,7.193-7.192c3.972,0,7.191,3.22,7.191,7.192
		s-3.22,7.192-7.191,7.192C242.528,127.339,239.307,124.119,239.307,120.146z"/>
</g>
<path fill="#E6E6E6" d="M145.688,51.99c-0.235-0.234-0.235-0.617,0-0.852c0.236-0.236,0.617-0.236,0.853,0l2.423,2.421l5.085-5.086
	c0.235-0.235,0.616-0.235,0.854,0c0.234,0.235,0.234,0.617,0,0.853l-5.477,5.477c-0.257,0.256-0.67,0.256-0.926,0L145.688,51.99z"/>
<path fill="#FFFFFF" d="M202.638,51.375c-0.507-0.503-0.507-1.323,0-1.825c0.506-0.507,1.322-0.507,1.825,0l5.19,5.189
	l10.901-10.901c0.507-0.505,1.321-0.505,1.828,0c0.504,0.504,0.504,1.323,0,1.827l-11.737,11.739c-0.549,0.547-1.436,0.547-1.984,0
	L202.638,51.375z"/>
</svg>
