<?xml version="1.0" encoding="utf-8"?>
<!-- Generator: Adobe Illustrator 16.0.3, SVG Export Plug-In . SVG Version: 6.00 Build 0)  -->
<!DOCTYPE svg PUBLIC "-//W3C//DTD SVG 1.1//EN" "http://www.w3.org/Graphics/SVG/1.1/DTD/svg11.dtd">
<svg version="1.1" id="Layer_1" xmlns="http://www.w3.org/2000/svg" xmlns:xlink="http://www.w3.org/1999/xlink" x="0px" y="0px"
	 width="132.151px" height="109px" viewBox="0 0 132.151 109" enable-background="new 0 0 132.151 109" xml:space="preserve">
<g>
	
		<linearGradient id="SVGID_1_" gradientUnits="userSpaceOnUse" x1="1546.416" y1="39.5801" x2="1662.705" y2="39.5801" gradientTransform="matrix(-1 0 0 1 1647.4063 0)">
		<stop  offset="0" style="stop-color:#7B0CB1"/>
		<stop  offset="0.0503" style="stop-color:#7C0FB5"/>
		<stop  offset="0.3247" style="stop-color:#801BC6"/>
		<stop  offset="0.6254" style="stop-color:#8223D0"/>
		<stop  offset="1" style="stop-color:#8325D3"/>
	</linearGradient>
	<path opacity="0.5" fill="url(#SVGID_1_)" d="M39.101,38.994c0.448-0.063,0.896-0.133,1.338-0.211
		c-0.24,0.525-0.469,1.056-0.685,1.594C39.525,39.921,39.309,39.459,39.101,38.994z"/>
	
		<linearGradient id="SVGID_2_" gradientUnits="userSpaceOnUse" x1="1540.7246" y1="39.5801" x2="1611.3663" y2="39.5801" gradientTransform="matrix(-1 0 0 1 1647.4063 0)">
		<stop  offset="0" style="stop-color:#7B0CB1"/>
		<stop  offset="0.0503" style="stop-color:#7C0FB5"/>
		<stop  offset="0.3247" style="stop-color:#801BC6"/>
		<stop  offset="0.6254" style="stop-color:#8223D0"/>
		<stop  offset="1" style="stop-color:#8325D3"/>
	</linearGradient>
	<path opacity="0.5" fill="url(#SVGID_2_)" d="M39.101,38.994c0.448-0.063,0.896-0.133,1.338-0.211
		c-0.24,0.525-0.469,1.056-0.685,1.594C39.525,39.921,39.309,39.459,39.101,38.994z"/>
	<path fill="#121332" d="M77.349,19.572c0-6.433,1.56-12.498,4.306-17.854c8.394,6.607,14.017,16.567,14.859,27.864
		c-5.153-4.883-11.779-8.221-19.146-9.271C77.362,20.065,77.349,19.821,77.349,19.572z"/>
	
		<linearGradient id="SVGID_3_" gradientUnits="userSpaceOnUse" x1="1539.9141" y1="46.1436" x2="1570.0391" y2="46.1436" gradientTransform="matrix(-1 0 0 1 1647.4063 0)">
		<stop  offset="0" style="stop-color:#F20D72"/>
		<stop  offset="0.2891" style="stop-color:#E11165"/>
		<stop  offset="0.6054" style="stop-color:#D7135D"/>
		<stop  offset="1" style="stop-color:#D4145A"/>
	</linearGradient>
	<path fill="url(#SVGID_3_)" d="M101.013,70.121c0-6.078-0.937-11.938-2.665-17.447c-1.109-0.581-2.186-1.217-3.229-1.9
		c-0.96-0.629-1.89-1.298-2.789-2.006c-1.508-1.186-2.925-2.48-4.24-3.87c-5.432-5.737-9.149-13.104-10.33-21.302
		c-0.232-1.605-0.36-3.244-0.392-4.905c7.367,1.052,13.993,4.39,19.146,9.271c3.071,2.912,5.624,6.365,7.488,10.219
		c2.235,4.621,3.49,9.805,3.49,15.282c0,0.88-0.043,1.747-0.107,2.61c-0.072,0.995-0.18,1.98-0.335,2.951
		c-0.854,5.363-2.931,10.311-5.919,14.573c-0.05-0.444-0.104-0.89-0.169-1.331C100.992,71.555,101.013,70.842,101.013,70.121z"/>
	
		<linearGradient id="SVGID_4_" gradientUnits="userSpaceOnUse" x1="1168.001" y1="73.123" x2="1633.7949" y2="73.123" gradientTransform="matrix(-1 0 0 1 1647.4063 0)">
		<stop  offset="0" style="stop-color:#7B0CB1"/>
		<stop  offset="0.0503" style="stop-color:#7C0FB5"/>
		<stop  offset="0.3247" style="stop-color:#801BC6"/>
		<stop  offset="0.6254" style="stop-color:#8223D0"/>
		<stop  offset="1" style="stop-color:#8325D3"/>
	</linearGradient>
	<path opacity="0.5" fill="url(#SVGID_4_)" d="M100.962,72.266c0.064,0.441,0.119,0.887,0.169,1.331
		c-0.088,0.126-0.17,0.259-0.26,0.384C100.908,73.41,100.939,72.84,100.962,72.266z"/>
	<path opacity="0.4" fill="#22B573" d="M100.962,72.266c0.064,0.441,0.119,0.887,0.169,1.331c-0.088,0.126-0.17,0.259-0.26,0.384
		C100.908,73.41,100.939,72.84,100.962,72.266z"/>
	
		<linearGradient id="SVGID_5_" gradientUnits="userSpaceOnUse" x1="1546.3936" y1="78.2856" x2="1662.7394" y2="78.2856" gradientTransform="matrix(-1 0 0 1 1647.4063 0)">
		<stop  offset="0" style="stop-color:#7B0CB1"/>
		<stop  offset="0.0503" style="stop-color:#7C0FB5"/>
		<stop  offset="0.3247" style="stop-color:#801BC6"/>
		<stop  offset="0.6254" style="stop-color:#8223D0"/>
		<stop  offset="1" style="stop-color:#8325D3"/>
	</linearGradient>
	<path opacity="0.5" fill="url(#SVGID_5_)" d="M97.678,78.557c-0.178-0.064-0.354-0.132-0.533-0.195
		c0.112-0.111,0.211-0.234,0.32-0.347C97.541,78.193,97.605,78.377,97.678,78.557z"/>
	
		<linearGradient id="SVGID_6_" gradientUnits="userSpaceOnUse" x1="1532.9502" y1="78.2856" x2="1611.3754" y2="78.2856" gradientTransform="matrix(-1 0 0 1 1647.4063 0)">
		<stop  offset="0" style="stop-color:#7B0CB1"/>
		<stop  offset="0.0503" style="stop-color:#7C0FB5"/>
		<stop  offset="0.3247" style="stop-color:#801BC6"/>
		<stop  offset="0.6254" style="stop-color:#8223D0"/>
		<stop  offset="1" style="stop-color:#8325D3"/>
	</linearGradient>
	<path opacity="0.5" fill="url(#SVGID_6_)" d="M97.678,78.557c-0.178-0.064-0.354-0.132-0.533-0.195
		c0.112-0.111,0.211-0.234,0.32-0.347C97.541,78.193,97.605,78.377,97.678,78.557z"/>
	<path opacity="0.4" fill="#22B573" d="M97.678,78.557c-0.178-0.064-0.354-0.132-0.533-0.195c0.112-0.111,0.211-0.234,0.32-0.347
		C97.541,78.193,97.605,78.377,97.678,78.557z"/>
	<path opacity="0.4" fill="#22B573" d="M97.678,78.557c-0.178-0.064-0.354-0.132-0.533-0.195c0.112-0.111,0.211-0.234,0.32-0.347
		C97.541,78.193,97.605,78.377,97.678,78.557z"/>
	<linearGradient id="SVGID_7_" gradientUnits="userSpaceOnUse" x1="2.9063" y1="81.6763" x2="97.4648" y2="81.6763">
		<stop  offset="0" style="stop-color:#7B0CB1"/>
		<stop  offset="0.0503" style="stop-color:#7C0FB5"/>
		<stop  offset="0.3247" style="stop-color:#801BC6"/>
		<stop  offset="0.6254" style="stop-color:#8223D0"/>
		<stop  offset="1" style="stop-color:#8325D3"/>
	</linearGradient>
	<path fill="url(#SVGID_7_)" d="M83.086,60.553c-0.923-0.623-1.877-1.201-2.854-1.746c-2.832,0.734-5.798,1.135-8.86,1.135
		c-6.835,0-13.208-1.948-18.613-5.311c-2.744,0.575-5.382,1.438-7.886,2.548c-3.587,1.59-6.89,3.694-9.821,6.222
		c-2.668-1.049-5.567-1.631-8.607-1.631c-0.296,0-0.588,0.012-0.878,0.023c-12.593,0.461-22.66,10.81-22.66,23.515
		c0,12.18,9.249,22.198,21.107,23.414c0.056-0.116,0.118-0.226,0.174-0.341c1.365-2.819,2.956-5.508,4.735-8.055
		c2.388-3.42,5.117-6.584,8.157-9.425c3.786-3.536,8.034-6.583,12.65-9.036c0.384-0.204,0.774-0.4,1.164-0.598
		c7.981-4.014,16.988-6.288,26.531-6.288c6.916,0,13.549,1.2,19.719,3.382c0.112-0.111,0.211-0.234,0.32-0.347
		C94.454,70.891,89.422,64.83,83.086,60.553z M39.521,65.789c-0.011,0.027-0.023,0.055-0.036,0.082
		c-0.015-0.042-0.033-0.083-0.049-0.125c-0.011-0.029-0.024-0.059-0.035-0.088c0.047,0.031,0.095,0.059,0.14,0.09
		c0.096,0.064,0.189,0.131,0.285,0.198C39.725,65.895,39.624,65.843,39.521,65.789z"/>
	
		<linearGradient id="SVGID_8_" gradientUnits="userSpaceOnUse" x1="1516.4453" y1="93.9341" x2="1560.8496" y2="93.9341" gradientTransform="matrix(-1 0 0 1 1647.4063 0)">
		<stop  offset="0" style="stop-color:#41C5EB"/>
		<stop  offset="0.2455" style="stop-color:#35B8E7"/>
		<stop  offset="0.5813" style="stop-color:#2CAEE3"/>
		<stop  offset="1" style="stop-color:#29ABE2"/>
	</linearGradient>
	<path fill="url(#SVGID_8_)" d="M98.48,78.868c0.588,0.22,1.182,0.438,1.76,0.679c0.368,0.155,0.731,0.32,1.098,0.482
		c4.563,2.023,8.822,4.606,12.693,7.662c7.171,5.664,13.002,12.947,16.93,21.309h-27.354h-6.203H86.557
		c7.389-7.807,11.928-18.338,11.928-29.936C98.484,78.998,98.48,78.934,98.48,78.868z"/>
	<path fill="#F20D72" d="M86.103,109H46.887h-9.936H24.438c-0.087-0.205-0.167-0.412-0.251-0.619
		c1.365-2.819,2.956-5.508,4.735-8.055c2.388-3.42,5.117-6.584,8.157-9.425c3.786-3.536,8.034-6.583,12.65-9.036
		c0.384-0.204,0.774-0.4,1.164-0.598c7.981-4.014,16.988-6.288,26.531-6.288c6.916,0,13.549,1.2,19.719,3.382
		c0.179,0.063,0.355,0.131,0.533,0.195c0.27,0.1,0.533,0.209,0.803,0.312c0,0.065,0.004,0.13,0.004,0.196
		c0,11.598-4.539,22.129-11.928,29.936h-0.044H86.103z"/>
	
		<linearGradient id="SVGID_9_" gradientUnits="userSpaceOnUse" x1="1539.9355" y1="39.5601" x2="1654.0912" y2="39.5601" gradientTransform="matrix(-1 0 0 1 1647.4063 0)">
		<stop  offset="0" style="stop-color:#7B0CB1"/>
		<stop  offset="0.0503" style="stop-color:#7C0FB5"/>
		<stop  offset="0.3247" style="stop-color:#801BC6"/>
		<stop  offset="0.6254" style="stop-color:#8223D0"/>
		<stop  offset="1" style="stop-color:#8325D3"/>
	</linearGradient>
	<path opacity="0.5" fill="url(#SVGID_9_)" d="M39.101,38.994c0.448-0.063,0.896-0.133,1.338-0.211
		c1.053-0.186,2.083-0.432,3.102-0.704c-0.311,1.644-1.718,2.886-3.432,2.962c-0.116-0.223-0.243-0.438-0.354-0.664
		C39.525,39.921,39.309,39.459,39.101,38.994z"/>
	<path fill="#121332" d="M39.101,38.994c0.448-0.063,0.896-0.133,1.338-0.211c1.053-0.186,2.083-0.432,3.102-0.704
		c-0.311,1.644-1.718,2.886-3.432,2.962c-0.116-0.223-0.243-0.438-0.354-0.664C39.525,39.921,39.309,39.459,39.101,38.994z"/>
	<path opacity="0.4" fill="#22B573" d="M50.751,39.947c-1.348,0.389-2.665,0.846-3.95,1.369
		C48.086,40.793,49.403,40.334,50.751,39.947z"/>
	<path opacity="0.4" fill="#22B573" d="M52.838,39.406c-0.662,0.152-1.32,0.321-1.971,0.506
		C51.518,39.728,52.174,39.559,52.838,39.406z"/>
	<path opacity="0.4" fill="#22B573" d="M59.331,38.471c-0.656,0.041-1.306,0.096-1.951,0.166
		C58.025,38.566,58.675,38.511,59.331,38.471z"/>
	<path opacity="0.4" fill="#22B573" d="M61.731,38.396c-0.683,0-1.362,0.021-2.038,0.057C60.369,38.418,61.049,38.396,61.731,38.396
		z"/>
	<path opacity="0.4" fill="#22B573" d="M46.731,41.345c-0.647,0.267-1.288,0.549-1.919,0.847
		C45.443,41.894,46.083,41.611,46.731,41.345z"/>
	
		<linearGradient id="SVGID_10_" gradientUnits="userSpaceOnUse" x1="1546.4443" y1="60.104" x2="1605.6836" y2="60.104" gradientTransform="matrix(-1 0 0 1 1647.4063 0)">
		<stop  offset="0" style="stop-color:#41C5EB"/>
		<stop  offset="0.2455" style="stop-color:#35B8E7"/>
		<stop  offset="0.5813" style="stop-color:#2CAEE3"/>
		<stop  offset="1" style="stop-color:#29ABE2"/>
	</linearGradient>
	<path fill="url(#SVGID_10_)" d="M44.809,42.193c6.37,2.384,13.264,3.696,20.467,3.696c5.592,0,10.995-0.804,16.115-2.271
		c-0.316-0.181-0.63-0.365-0.95-0.537c3.947,2.117,7.493,4.881,10.497,8.151c0.516,0.56,1.014,1.134,1.495,1.723
		c4.439,5.425,7.468,12.048,8.529,19.31c-0.022,0.574-0.054,1.145-0.091,1.715c-1.032,1.432-2.176,2.775-3.406,4.034
		c-3.011-7.124-8.043-13.185-14.379-17.462c-0.923-0.623-1.877-1.201-2.854-1.746c-2.832,0.734-5.798,1.135-8.86,1.135
		c-6.835,0-13.208-1.948-18.613-5.311c-1.121-0.697-2.204-1.449-3.235-2.264c-3.045-2.4-5.684-5.29-7.801-8.549
		C42.724,43.232,43.755,42.691,44.809,42.193z"/>
	<path opacity="0.4" fill="#22B573" d="M57.063,38.674c-1.361,0.16-2.699,0.388-4.013,0.685
		C54.364,39.063,55.702,38.834,57.063,38.674z"/>
	
		<linearGradient id="SVGID_11_" gradientUnits="userSpaceOnUse" x1="1476.3291" y1="38.6553" x2="1754.7885" y2="38.6553" gradientTransform="matrix(-1 0 0 1 1647.4063 0)">
		<stop  offset="0" style="stop-color:#7B0CB1"/>
		<stop  offset="0.0503" style="stop-color:#7C0FB5"/>
		<stop  offset="0.3247" style="stop-color:#801BC6"/>
		<stop  offset="0.6254" style="stop-color:#8223D0"/>
		<stop  offset="1" style="stop-color:#8325D3"/>
	</linearGradient>
	<path opacity="0.5" fill="url(#SVGID_11_)" d="M57.38,38.637c-0.107,0.012-0.21,0.026-0.316,0.037
		C57.17,38.663,57.272,38.648,57.38,38.637z"/>
	
		<linearGradient id="SVGID_12_" gradientUnits="userSpaceOnUse" x1="1477.0918" y1="38.4619" x2="1753.6622" y2="38.4619" gradientTransform="matrix(-1 0 0 1 1647.4063 0)">
		<stop  offset="0" style="stop-color:#7B0CB1"/>
		<stop  offset="0.0503" style="stop-color:#7C0FB5"/>
		<stop  offset="0.3247" style="stop-color:#801BC6"/>
		<stop  offset="0.6254" style="stop-color:#8223D0"/>
		<stop  offset="1" style="stop-color:#8325D3"/>
	</linearGradient>
	<path opacity="0.5" fill="url(#SVGID_12_)" d="M59.693,38.453c-0.121,0.006-0.242,0.011-0.362,0.018
		C59.451,38.464,59.572,38.459,59.693,38.453z"/>
	
		<linearGradient id="SVGID_13_" gradientUnits="userSpaceOnUse" x1="1477.1016" y1="41.3306" x2="1753.7737" y2="41.3306" gradientTransform="matrix(-1 0 0 1 1647.4063 0)">
		<stop  offset="0" style="stop-color:#7B0CB1"/>
		<stop  offset="0.0503" style="stop-color:#7C0FB5"/>
		<stop  offset="0.3247" style="stop-color:#801BC6"/>
		<stop  offset="0.6254" style="stop-color:#8223D0"/>
		<stop  offset="1" style="stop-color:#8325D3"/>
	</linearGradient>
	<path opacity="0.5" fill="url(#SVGID_13_)" d="M46.801,41.316c-0.022,0.01-0.047,0.02-0.069,0.028
		C46.754,41.336,46.778,41.326,46.801,41.316z"/>
	
		<linearGradient id="SVGID_14_" gradientUnits="userSpaceOnUse" x1="1590.876" y1="42.1924" x2="1614.3135" y2="42.1924" gradientTransform="matrix(-1 0 0 1 1647.4063 0)">
		<stop  offset="0" style="stop-color:#7B0CB1"/>
		<stop  offset="0.0503" style="stop-color:#7C0FB5"/>
		<stop  offset="0.3247" style="stop-color:#801BC6"/>
		<stop  offset="0.6254" style="stop-color:#8223D0"/>
		<stop  offset="1" style="stop-color:#8325D3"/>
	</linearGradient>
	<polygon opacity="0.5" fill="url(#SVGID_14_)" points="44.809,42.193 44.812,42.191 44.809,42.193 	"/>
	
		<linearGradient id="SVGID_15_" gradientUnits="userSpaceOnUse" x1="1477.4951" y1="39.9297" x2="1753.2194" y2="39.9297" gradientTransform="matrix(-1 0 0 1 1647.4063 0)">
		<stop  offset="0" style="stop-color:#7B0CB1"/>
		<stop  offset="0.0503" style="stop-color:#7C0FB5"/>
		<stop  offset="0.3247" style="stop-color:#801BC6"/>
		<stop  offset="0.6254" style="stop-color:#8223D0"/>
		<stop  offset="1" style="stop-color:#8325D3"/>
	</linearGradient>
	<path opacity="0.5" fill="url(#SVGID_15_)" d="M50.867,39.912c-0.039,0.011-0.078,0.023-0.116,0.035
		C50.789,39.936,50.828,39.923,50.867,39.912z"/>
	
		<linearGradient id="SVGID_16_" gradientUnits="userSpaceOnUse" x1="1476.5537" y1="39.3823" x2="1754.4572" y2="39.3823" gradientTransform="matrix(-1 0 0 1 1647.4063 0)">
		<stop  offset="0" style="stop-color:#7B0CB1"/>
		<stop  offset="0.0503" style="stop-color:#7C0FB5"/>
		<stop  offset="0.3247" style="stop-color:#801BC6"/>
		<stop  offset="0.6254" style="stop-color:#8223D0"/>
		<stop  offset="1" style="stop-color:#8325D3"/>
	</linearGradient>
	<path opacity="0.5" fill="url(#SVGID_16_)" d="M53.051,39.358c-0.072,0.016-0.144,0.03-0.213,0.048
		C52.907,39.389,52.979,39.374,53.051,39.358z"/>
	<path fill="#F20D72" d="M40.108,41.041c0.501,0.95,1.032,1.882,1.614,2.777c1.001-0.586,2.032-1.127,3.086-1.625
		c6.37,2.384,13.264,3.696,20.467,3.696c5.592,0,10.995-0.804,16.115-2.271c3.566,2.04,6.787,4.61,9.547,7.614
		c0.516,0.56,1.014,1.134,1.495,1.723c4.439,5.425,7.468,12.048,8.529,19.31c0.03-0.711,0.051-1.424,0.051-2.145
		c0-6.078-0.937-11.938-2.665-17.447c-1.109-0.581-2.186-1.217-3.229-1.9c-0.96-0.629-1.89-1.298-2.789-2.006
		c-1.508-1.186-2.925-2.48-4.24-3.87c-0.819-0.866-1.595-1.772-2.334-2.711c-4.156-5.273-6.993-11.631-7.996-18.591
		c-0.232-1.605-0.36-3.244-0.392-4.905c-1.637-0.233-3.307-0.362-5.009-0.362c-0.946,0-1.882,0.049-2.811,0.123
		c-0.933,0.073-1.857,0.18-2.771,0.323c-4.507,9.413-12.975,16.548-23.237,19.305c-0.231,1.222-1.067,2.219-2.185,2.683
		C40.97,40.923,40.55,41.023,40.108,41.041z M52.116,39.59c-0.21,0.054-0.42,0.107-0.629,0.162
		C51.696,39.697,51.906,39.644,52.116,39.59z M59.331,38.471c0,0-0.002,0-0.003,0c0.054-0.002,0.107-0.004,0.162-0.008
		C59.436,38.467,59.383,38.469,59.331,38.471z M54.581,39.057c-0.2,0.035-0.397,0.078-0.597,0.117
		C54.184,39.135,54.381,39.092,54.581,39.057z M49.061,40.482c0.228-0.075,0.458-0.146,0.689-0.217
		C49.52,40.336,49.288,40.407,49.061,40.482z"/>
	<g>
		<circle fill="#FFFFFF" cx="66.11" cy="32.568" r="2.988"/>
		<circle fill="#121332" cx="64.756" cy="33.904" r="1.634"/>
	</g>
</g>
</svg>
