<?xml version="1.0" encoding="utf-8"?>
<!-- Generator: Adobe Illustrator 16.0.3, SVG Export Plug-In . SVG Version: 6.00 Build 0)  -->
<!DOCTYPE svg PUBLIC "-//W3C//DTD SVG 1.1//EN" "http://www.w3.org/Graphics/SVG/1.1/DTD/svg11.dtd">
<svg version="1.1" id="Layer_1" xmlns="http://www.w3.org/2000/svg" xmlns:xlink="http://www.w3.org/1999/xlink" x="0px" y="0px"
	 width="178.111px" height="153.919px" viewBox="0 0 178.111 153.919" enable-background="new 0 0 178.111 153.919"
	 xml:space="preserve">
<g>
	<ellipse fill="#E6E6E6" cx="89.927" cy="143.667" rx="86.146" ry="8.333"/>
	<g>
		<linearGradient id="SVGID_1_" gradientUnits="userSpaceOnUse" x1="49.2305" y1="16.6934" x2="104.3223" y2="16.6934">
			<stop  offset="0" style="stop-color:#45C480"/>
			<stop  offset="0.0901" style="stop-color:#37BF86"/>
			<stop  offset="0.2908" style="stop-color:#1FB590"/>
			<stop  offset="0.5022" style="stop-color:#0EAE97"/>
			<stop  offset="0.7293" style="stop-color:#03AA9C"/>
			<stop  offset="1" style="stop-color:#00A99D"/>
		</linearGradient>
		<path fill="url(#SVGID_1_)" d="M104.322,4.382C82.232-3.157,58.229,7.751,49.23,29.004C71.318,36.545,95.324,25.635,104.322,4.382
			z"/>
		<g>
			<path opacity="0.3" fill="#121332" d="M84.261,49.321c1.399,4.158,2.17,8.605,2.17,13.235c0,10.136-3.642,19.419-9.681,26.623
				c2.015,6.507,5.589,12.635,10.739,17.786c0.699,0.699,1.423,1.358,2.156,2c-0.212-1.664-0.333-3.357-0.333-5.079
				c0-7.117,1.869-13.795,5.13-19.582c0.011-1.932,0.194-3.862,0.554-5.767c-3.168-11.088-5.05-22.717-5.492-34.715
				c-0.686,0.604-1.359,1.224-2.014,1.878C86.332,46.858,85.261,48.071,84.261,49.321z"/>
			<path opacity="0.3" fill="#121332" d="M95.969,81.805c-0.337-1.083-0.66-2.172-0.973-3.267c-0.359,1.904-0.543,3.835-0.554,5.767
				C94.922,83.451,95.431,82.616,95.969,81.805z"/>
			<path opacity="0.3" fill="#121332" d="M95.969,81.805c-0.337-1.083-0.66-2.172-0.973-3.267c-0.359,1.904-0.543,3.835-0.554,5.767
				C94.922,83.451,95.431,82.616,95.969,81.805z"/>
			<path opacity="0.5" fill="#121332" d="M76.75,89.18c-4.147-13.4-1.646-28.409,7.511-39.858c-1.03-3.062-2.404-5.964-4.083-8.659
				c-3.926-0.92-7.633-2.397-11.041-4.346c0.094,1.114,0.153,2.238,0.153,3.377c0,18.874-13.225,34.652-30.911,38.596
				c10.806,4.924,20.904,11.129,30.105,18.417C71.567,94.577,74.35,92.044,76.75,89.18z"/>
			<path opacity="0.3" fill="#121332" d="M84.261,49.321C75.104,60.771,72.603,75.779,76.75,89.18
				c6.039-7.204,9.681-16.487,9.681-26.623C86.431,57.927,85.66,53.479,84.261,49.321z"/>
			<path opacity="0.5" fill="#121332" d="M84.261,49.321C75.104,60.771,72.603,75.779,76.75,89.18
				c6.039-7.204,9.681-16.487,9.681-26.623C86.431,57.927,85.66,53.479,84.261,49.321z"/>
			<linearGradient id="SVGID_2_" gradientUnits="userSpaceOnUse" x1="3.4844" y1="55.6538" x2="69.29" y2="55.6538">
				<stop  offset="0" style="stop-color:#45C480"/>
				<stop  offset="0.0901" style="stop-color:#37BF86"/>
				<stop  offset="0.2908" style="stop-color:#1FB590"/>
				<stop  offset="0.5022" style="stop-color:#0EAE97"/>
				<stop  offset="0.7293" style="stop-color:#03AA9C"/>
				<stop  offset="1" style="stop-color:#00A99D"/>
			</linearGradient>
			<path fill="url(#SVGID_2_)" d="M69.29,39.693c0-1.139-0.06-2.263-0.153-3.377c-1.596-0.913-3.127-1.924-4.581-3.033
				c-1.309-0.029-2.604-0.117-3.882-0.265C38.469,36.731,18.629,47.42,3.484,62.762c0.008,1.602,0.112,3.18,0.297,4.733
				c12.117,2.168,23.715,5.834,34.598,10.794C56.065,74.346,69.29,58.567,69.29,39.693z"/>
			<path opacity="0.5" fill="#121332" d="M65.508,33.308c-0.319,0-0.635-0.017-0.952-0.024c1.454,1.109,2.985,2.12,4.581,3.033
				c-0.09-1.062-0.22-2.11-0.392-3.146C67.675,33.252,66.598,33.308,65.508,33.308z"/>
			<path opacity="0.5" fill="#121332" d="M65.508,33.308c-0.319,0-0.635-0.017-0.952-0.024c1.454,1.109,2.985,2.12,4.581,3.033
				c-0.09-1.062-0.22-2.11-0.392-3.146C67.675,33.252,66.598,33.308,65.508,33.308z"/>
			<path opacity="0.5" fill="#121332" d="M65.508,33.308c-0.319,0-0.635-0.017-0.952-0.024c1.454,1.109,2.985,2.12,4.581,3.033
				c-0.09-1.062-0.22-2.11-0.392-3.146C67.675,33.252,66.598,33.308,65.508,33.308z"/>
			<path opacity="0.5" fill="#121332" d="M60.674,33.019c1.277,0.147,2.573,0.235,3.882,0.265c-0.309-0.234-0.612-0.475-0.913-0.718
				C62.648,32.703,61.659,32.854,60.674,33.019z"/>
			<path opacity="0.5" fill="#121332" d="M60.674,33.019c1.277,0.147,2.573,0.235,3.882,0.265c-0.309-0.234-0.612-0.475-0.913-0.718
				C62.648,32.703,61.659,32.854,60.674,33.019z"/>
			<path opacity="0.5" fill="#121332" d="M60.674,33.019c1.277,0.147,2.573,0.235,3.882,0.265c-0.309-0.234-0.612-0.475-0.913-0.718
				C62.648,32.703,61.659,32.854,60.674,33.019z"/>
			<path opacity="0.5" fill="#121332" d="M77.357,31.58c-1.569,0.011-3.133,0.05-4.685,0.129c0.296,0.265,0.582,0.539,0.87,0.813
				C74.837,32.269,76.109,31.952,77.357,31.58z"/>
			<path opacity="0.5" fill="#121332" d="M77.357,31.58c-1.569,0.011-3.133,0.05-4.685,0.129c0.296,0.265,0.582,0.539,0.87,0.813
				C74.837,32.269,76.109,31.952,77.357,31.58z"/>
			<path opacity="0.5" fill="#121332" d="M73.543,32.522c-0.288-0.274-0.574-0.549-0.87-0.813c-1.387,0.07-2.764,0.175-4.136,0.3
				c0.077,0.385,0.144,0.772,0.208,1.161C70.372,33.044,71.974,32.83,73.543,32.522z"/>
			<path opacity="0.5" fill="#121332" d="M73.543,32.522c-0.288-0.274-0.574-0.549-0.87-0.813c-1.387,0.07-2.764,0.175-4.136,0.3
				c0.077,0.385,0.144,0.772,0.208,1.161C70.372,33.044,71.974,32.83,73.543,32.522z"/>
			<path opacity="0.5" fill="#121332" d="M73.543,32.522c-0.288-0.274-0.574-0.549-0.87-0.813c-1.387,0.07-2.764,0.175-4.136,0.3
				c0.077,0.385,0.144,0.772,0.208,1.161C70.372,33.044,71.974,32.83,73.543,32.522z"/>
			<path opacity="0.5" fill="#121332" d="M68.745,33.17c-0.064-0.389-0.131-0.776-0.208-1.161c-1.643,0.147-3.273,0.334-4.895,0.557
				c0.301,0.243,0.604,0.483,0.913,0.718c0.317,0.008,0.633,0.024,0.952,0.024C66.598,33.308,67.675,33.252,68.745,33.17z"/>
			<path opacity="0.5" fill="#121332" d="M68.745,33.17c-0.064-0.389-0.131-0.776-0.208-1.161c-1.643,0.147-3.273,0.334-4.895,0.557
				c0.301,0.243,0.604,0.483,0.913,0.718c0.317,0.008,0.633,0.024,0.952,0.024C66.598,33.308,67.675,33.252,68.745,33.17z"/>
			<path opacity="0.5" fill="#121332" d="M68.745,33.17c-0.064-0.389-0.131-0.776-0.208-1.161c-1.643,0.147-3.273,0.334-4.895,0.557
				c0.301,0.243,0.604,0.483,0.913,0.718c0.317,0.008,0.633,0.024,0.952,0.024C66.598,33.308,67.675,33.252,68.745,33.17z"/>
			<path opacity="0.5" fill="#121332" d="M68.745,33.17c-0.064-0.389-0.131-0.776-0.208-1.161c-1.643,0.147-3.273,0.334-4.895,0.557
				c0.301,0.243,0.604,0.483,0.913,0.718c0.317,0.008,0.633,0.024,0.952,0.024C66.598,33.308,67.675,33.252,68.745,33.17z"/>
			<linearGradient id="SVGID_3_" gradientUnits="userSpaceOnUse" x1="3.7813" y1="73.3716" x2="38.3789" y2="73.3716">
				<stop  offset="0" style="stop-color:#45C480"/>
				<stop  offset="0.0901" style="stop-color:#37BF86"/>
				<stop  offset="0.2908" style="stop-color:#1FB590"/>
				<stop  offset="0.5022" style="stop-color:#0EAE97"/>
				<stop  offset="0.7293" style="stop-color:#03AA9C"/>
				<stop  offset="1" style="stop-color:#00A99D"/>
			</linearGradient>
			<path fill="url(#SVGID_3_)" d="M38.379,78.289c-10.883-4.96-22.48-8.626-34.598-10.794c0.094,0.784,0.21,1.563,0.346,2.333
				c6.902,5.87,15.838,9.42,25.608,9.42C32.705,79.248,35.596,78.91,38.379,78.289z"/>
			<path opacity="0.3" fill="#121332" d="M161.277,72.624c-0.839-9.819-5.008-19.409-12.522-26.923
				c-9.253-9.254-21.649-13.434-33.751-12.564c-1.606,1.24-3.305,2.364-5.087,3.361C130.539,43.064,148.39,55.838,161.277,72.624z"
				/>
			<path opacity="0.5" fill="#121332" d="M89.434,41.764c0.016,0.688,0.044,1.374,0.07,2.06c0.848-0.749,1.719-1.459,2.609-2.129
				c-0.803,0.046-1.611,0.076-2.428,0.076C89.602,41.771,89.518,41.765,89.434,41.764z"/>
			<path fill="#F20D72" d="M89.646,108.966c-0.733-0.642-1.457-1.301-2.156-2c-5.15-5.151-8.725-11.279-10.739-17.786
				c-4.147-13.4-1.646-28.409,7.511-39.858c1-1.25,2.071-2.463,3.229-3.62c0.654-0.654,1.328-1.274,2.014-1.878
				c0.848-0.749,1.719-1.459,2.609-2.129c-0.803,0.046-1.611,0.076-2.428,0.076c-0.084,0-0.168-0.006-0.252-0.007
				c-3.185-0.019-6.28-0.402-9.256-1.102c-3.926-0.92-7.633-2.397-11.041-4.346c0.094,1.114,0.153,2.238,0.153,3.377
				c0,18.874-13.225,34.652-30.911,38.596c10.806,4.924,20.904,11.129,30.105,18.417c9.557,7.571,18.139,16.314,25.539,26.01
				C91.78,118.522,90.27,113.884,89.646,108.966z"/>
			<path opacity="0.3" fill="#121332" d="M109.917,36.498c-5.321,2.981-11.363,4.824-17.804,5.196
				c-0.891,0.67-1.762,1.38-2.609,2.129c0.442,11.998,2.324,23.627,5.492,34.715c1.146-6.069,4.064-11.871,8.763-16.568
				c12.425-12.426,32.57-12.427,44.996,0c3.684,3.683,6.267,8.048,7.766,12.686c1.738,1.621,3.336,3.389,4.764,5.293
				c0.202-2.438,0.201-4.888-0.007-7.324C148.39,55.838,130.539,43.064,109.917,36.498z"/>
			<path opacity="0.5" fill="#121332" d="M109.917,36.498c-5.321,2.981-11.363,4.824-17.804,5.196
				c-0.891,0.67-1.762,1.38-2.609,2.129c0.442,11.998,2.324,23.627,5.492,34.715c1.146-6.069,4.064-11.871,8.763-16.568
				c12.425-12.426,32.57-12.427,44.996,0c3.684,3.683,6.267,8.048,7.766,12.686c1.738,1.621,3.336,3.389,4.764,5.293
				c0.202-2.438,0.201-4.888-0.007-7.324C148.39,55.838,130.539,43.064,109.917,36.498z"/>
			<linearGradient id="SVGID_4_" gradientUnits="userSpaceOnUse" x1="74.8101" y1="70.9951" x2="161.4346" y2="70.9951">
				<stop  offset="0" style="stop-color:#45C480"/>
				<stop  offset="0.0901" style="stop-color:#37BF86"/>
				<stop  offset="0.2908" style="stop-color:#1FB590"/>
				<stop  offset="0.5022" style="stop-color:#0EAE97"/>
				<stop  offset="0.7293" style="stop-color:#03AA9C"/>
				<stop  offset="1" style="stop-color:#00A99D"/>
			</linearGradient>
			<path fill="url(#SVGID_4_)" d="M161.277,72.624c-0.839-9.819-5.008-19.409-12.522-26.923
				c-9.253-9.254-21.649-13.434-33.751-12.564c-1.606,1.24-3.305,2.364-5.087,3.361c-5.321,2.981-11.363,4.824-17.804,5.196
				c-0.891,0.67-1.762,1.38-2.609,2.129c-0.686,0.604-1.359,1.224-2.014,1.878c-1.158,1.157-2.229,2.37-3.229,3.62
				C75.104,60.771,72.603,75.779,76.75,89.18c2.015,6.507,5.589,12.635,10.739,17.786c0.699,0.699,1.423,1.358,2.156,2
				c-0.212-1.664-0.333-3.357-0.333-5.079c0-7.117,1.869-13.795,5.13-19.582c0.011-1.932,0.194-3.862,0.554-5.767
				c1.146-6.069,4.064-11.871,8.763-16.568c12.425-12.426,32.57-12.427,44.996,0c3.684,3.683,6.267,8.048,7.766,12.686
				c1.738,1.621,3.336,3.389,4.764,5.293C161.486,77.511,161.485,75.061,161.277,72.624z"/>
			<path opacity="0.3" fill="#121332" d="M129.279,63.92c10.53,0,20.103,4.08,27.241,10.735c-1.499-4.638-4.082-9.003-7.766-12.686
				c-12.426-12.427-32.571-12.426-44.996,0c-4.698,4.697-7.616,10.499-8.763,16.568c0.313,1.095,0.636,2.184,0.973,3.267
				C103.128,71.028,115.371,63.92,129.279,63.92z"/>
			<path opacity="0.3" fill="#121332" d="M129.279,63.92c10.53,0,20.103,4.08,27.241,10.735c-1.499-4.638-4.082-9.003-7.766-12.686
				c-12.426-12.427-32.571-12.426-44.996,0c-4.698,4.697-7.616,10.499-8.763,16.568c0.313,1.095,0.636,2.184,0.973,3.267
				C103.128,71.028,115.371,63.92,129.279,63.92z"/>
			<path opacity="0.5" fill="#121332" d="M129.279,63.92c10.53,0,20.103,4.08,27.241,10.735c-1.499-4.638-4.082-9.003-7.766-12.686
				c-12.426-12.427-32.571-12.426-44.996,0c-4.698,4.697-7.616,10.499-8.763,16.568c0.313,1.095,0.636,2.184,0.973,3.267
				C103.128,71.028,115.371,63.92,129.279,63.92z"/>
			<path fill="#121332" d="M148.755,61.97c-12.426-12.427-32.571-12.426-44.996,0c-4.698,4.697-7.616,10.499-8.763,16.568
				c-0.359,1.904-0.543,3.835-0.554,5.767c0.479-0.854,0.988-1.688,1.526-2.5c7.159-10.776,19.402-17.885,33.311-17.885
				c10.53,0,20.103,4.08,27.241,10.735C155.021,70.018,152.438,65.652,148.755,61.97z"/>
			<path opacity="0.3" fill="#121332" d="M109.917,36.498c1.782-0.997,3.48-2.121,5.087-3.361
				c-3.393,0.243-6.759,0.883-10.029,1.923C106.64,35.5,108.287,35.979,109.917,36.498z"/>
			<path opacity="0.5" fill="#121332" d="M109.917,36.498c1.782-0.997,3.48-2.121,5.087-3.361
				c-3.393,0.243-6.759,0.883-10.029,1.923C106.64,35.5,108.287,35.979,109.917,36.498z"/>
			<path opacity="0.3" fill="#121332" d="M109.917,36.498c-1.63-0.519-3.277-0.998-4.942-1.438c-4.546,1.443-8.9,3.653-12.861,6.635
				C98.554,41.322,104.596,39.479,109.917,36.498z"/>
			<path opacity="0.5" fill="#121332" d="M109.917,36.498c-1.63-0.519-3.277-0.998-4.942-1.438c-4.546,1.443-8.9,3.653-12.861,6.635
				C98.554,41.322,104.596,39.479,109.917,36.498z"/>
			<path opacity="0.5" fill="#121332" d="M109.917,36.498c-1.63-0.519-3.277-0.998-4.942-1.438c-4.546,1.443-8.9,3.653-12.861,6.635
				C98.554,41.322,104.596,39.479,109.917,36.498z"/>
			<path opacity="0.5" fill="#121332" d="M89.975,25.314c0.029-0.021,0.059-0.04,0.087-0.062c-0.026,0.003-0.054,0.004-0.081,0.007
				C89.979,25.278,89.977,25.297,89.975,25.314z"/>
			<path opacity="0.5" fill="#121332" d="M89.975,25.314c0.029-0.021,0.059-0.04,0.087-0.062c-0.026,0.003-0.054,0.004-0.081,0.007
				C89.979,25.278,89.977,25.297,89.975,25.314z"/>
			<path opacity="0.5" fill="#121332" d="M89.975,25.314c0.029-0.021,0.059-0.04,0.087-0.062c-0.026,0.003-0.054,0.004-0.081,0.007
				C89.979,25.278,89.977,25.297,89.975,25.314z"/>
			<path opacity="0.5" fill="#121332" d="M113.985,119.457c-8.758-0.836-17.303-4.339-24.34-10.491
				c0.624,4.918,2.135,9.557,4.378,13.75c2.035,2.665,3.979,5.402,5.83,8.208c7.304,7.945,17.781,12.928,29.426,12.928
				c1.653,0,3.281-0.112,4.883-0.308C126.609,136.274,119.838,128.2,113.985,119.457z"/>
			<path fill="#F20D72" d="M113.985,119.457c-8.758-0.836-17.303-4.339-24.34-10.491c0.624,4.918,2.135,9.557,4.378,13.75
				c2.035,2.665,3.979,5.402,5.83,8.208c7.304,7.945,17.781,12.928,29.426,12.928c1.653,0,3.281-0.112,4.883-0.308
				C126.609,136.274,119.838,128.2,113.985,119.457z"/>
			<path opacity="0.3" fill="#121332" d="M103.759,106.966c-6.256-6.255-9.358-14.465-9.316-22.661
				c-3.261,5.787-5.13,12.465-5.13,19.582c0,1.722,0.121,3.415,0.333,5.079c7.037,6.152,15.582,9.655,24.34,10.491
				c-1.836-2.741-3.585-5.545-5.235-8.414C106.986,109.878,105.312,108.52,103.759,106.966z"/>
			<path opacity="0.5" fill="#121332" d="M103.759,106.966c-6.256-6.255-9.358-14.465-9.316-22.661
				c-3.261,5.787-5.13,12.465-5.13,19.582c0,1.722,0.121,3.415,0.333,5.079c7.037,6.152,15.582,9.655,24.34,10.491
				c-1.836-2.741-3.585-5.545-5.235-8.414C106.986,109.878,105.312,108.52,103.759,106.966z"/>
			<path opacity="0.3" fill="#121332" d="M103.759,106.966c1.553,1.554,3.228,2.912,4.991,4.077
				c-5.273-9.166-9.58-18.958-12.781-29.238c-0.538,0.812-1.047,1.646-1.526,2.5C94.4,92.501,97.503,100.711,103.759,106.966z"/>
			<path opacity="0.3" fill="#121332" d="M103.759,106.966c1.553,1.554,3.228,2.912,4.991,4.077
				c-5.273-9.166-9.58-18.958-12.781-29.238c-0.538,0.812-1.047,1.646-1.526,2.5C94.4,92.501,97.503,100.711,103.759,106.966z"/>
			<path opacity="0.5" fill="#121332" d="M103.759,106.966c1.553,1.554,3.228,2.912,4.991,4.077
				c-5.273-9.166-9.58-18.958-12.781-29.238c-0.538,0.812-1.047,1.646-1.526,2.5C94.4,92.501,97.503,100.711,103.759,106.966z"/>
			<path opacity="0.5" fill="#121332" d="M99.854,130.924c-1.852-2.806-3.795-5.543-5.83-8.208
				C95.62,125.697,97.582,128.453,99.854,130.924z"/>
			<path opacity="0.5" fill="#121332" d="M99.854,130.924c-1.852-2.806-3.795-5.543-5.83-8.208
				C95.62,125.697,97.582,128.453,99.854,130.924z"/>
			<path opacity="0.5" fill="#121332" d="M99.854,130.924c-1.852-2.806-3.795-5.543-5.83-8.208
				C95.62,125.697,97.582,128.453,99.854,130.924z"/>
			<path opacity="0.3" fill="#121332" d="M156.521,74.655c3.56,11.008,0.977,23.568-7.766,32.311
				c7.539-7.539,11.708-17.165,12.529-27.018C159.856,78.044,158.259,76.276,156.521,74.655z"/>
			<path opacity="0.5" fill="#121332" d="M156.521,74.655c3.56,11.008,0.977,23.568-7.766,32.311
				c7.539-7.539,11.708-17.165,12.529-27.018C159.856,78.044,158.259,76.276,156.521,74.655z"/>
			<path opacity="0.5" fill="#121332" d="M156.521,74.655c3.56,11.008,0.977,23.568-7.766,32.311
				c7.539-7.539,11.708-17.165,12.529-27.018C159.856,78.044,158.259,76.276,156.521,74.655z"/>
			<path opacity="0.3" fill="#121332" d="M108.75,111.043c1.65,2.869,3.399,5.673,5.235,8.414"/>
			<path opacity="0.3" fill="#121332" d="M148.755,106.966"/>
			<path opacity="0.5" fill="#121332" d="M108.75,111.043c1.65,2.869,3.399,5.673,5.235,8.414"/>
			<path opacity="0.5" fill="#121332" d="M148.755,106.966"/>
			<path opacity="0.3" fill="#121332" d="M148.755,106.966c-6.531,6.531-17.12,6.531-23.651,0c-6.531-6.532-6.531-17.12,0-23.651
				c6.531-6.532,17.12-6.532,23.651,0C155.286,89.846,155.286,100.434,148.755,106.966c8.742-8.742,11.325-21.303,7.766-32.311
				C149.382,68,139.81,63.92,129.279,63.92c-13.908,0-26.151,7.108-33.311,17.885c3.201,10.28,7.508,20.072,12.781,29.238"/>
			<path opacity="0.3" fill="#121332" d="M148.755,106.966c-6.531,6.531-17.12,6.531-23.651,0c-6.531-6.532-6.531-17.12,0-23.651
				c6.531-6.532,17.12-6.532,23.651,0C155.286,89.846,155.286,100.434,148.755,106.966c8.742-8.742,11.325-21.303,7.766-32.311
				C149.382,68,139.81,63.92,129.279,63.92c-13.908,0-26.151,7.108-33.311,17.885c3.201,10.28,7.508,20.072,12.781,29.238"/>
			<path opacity="0.5" fill="#121332" d="M148.755,106.966c-6.531,6.531-17.12,6.531-23.651,0c-6.531-6.532-6.531-17.12,0-23.651
				c6.531-6.532,17.12-6.532,23.651,0C155.286,89.846,155.286,100.434,148.755,106.966c8.742-8.742,11.325-21.303,7.766-32.311
				C149.382,68,139.81,63.92,129.279,63.92c-13.908,0-26.151,7.108-33.311,17.885c3.201,10.28,7.508,20.072,12.781,29.238"/>
			<linearGradient id="SVGID_5_" gradientUnits="userSpaceOnUse" x1="89.3125" y1="91.6885" x2="161.2842" y2="91.6885">
				<stop  offset="0" style="stop-color:#7B0CB1"/>
				<stop  offset="0.0503" style="stop-color:#7C0FB5"/>
				<stop  offset="0.3247" style="stop-color:#801BC6"/>
				<stop  offset="0.6254" style="stop-color:#8223D0"/>
				<stop  offset="1" style="stop-color:#8325D3"/>
			</linearGradient>
			<path fill="url(#SVGID_5_)" d="M148.755,106.966c-6.531,6.531-17.12,6.531-23.651,0c-6.531-6.532-6.531-17.12,0-23.651
				c6.531-6.532,17.12-6.532,23.651,0C155.286,89.846,155.286,100.434,148.755,106.966c0.316-0.315,0.621-0.638,0.921-0.964
				c6.952-7.387,10.822-16.614,11.608-26.054c-1.428-1.904-3.025-3.672-4.764-5.293C149.382,68,139.81,63.92,129.279,63.92
				c-13.908,0-26.151,7.108-33.311,17.885c-0.538,0.812-1.047,1.646-1.526,2.5c-3.261,5.787-5.13,12.465-5.13,19.582
				c0,1.722,0.121,3.415,0.333,5.079c7.037,6.152,15.582,9.655,24.34,10.491c-1.836-2.741-1.836-4.943-3.486-7.812"/>
			<circle opacity="0.3" fill="#121332" cx="136.929" cy="95.14" r="16.724"/>
			<circle opacity="0.3" fill="#121332" cx="136.929" cy="95.14" r="16.724"/>
			<circle opacity="0.3" fill="#121332" cx="136.929" cy="95.14" r="16.724"/>
			<circle opacity="0.5" fill="#121332" cx="136.929" cy="95.14" r="16.724"/>
			<circle opacity="0.5" fill="#121332" cx="136.929" cy="95.14" r="16.724"/>
		</g>
		<g>
			<linearGradient id="SVGID_6_" gradientUnits="userSpaceOnUse" x1="3.5684" y1="40.9336" x2="73.543" y2="40.9336">
				<stop  offset="0" style="stop-color:#41C5EB"/>
				<stop  offset="0.2455" style="stop-color:#35B8E7"/>
				<stop  offset="0.5813" style="stop-color:#2CAEE3"/>
				<stop  offset="1" style="stop-color:#29ABE2"/>
			</linearGradient>
			<path fill="url(#SVGID_6_)" d="M72.673,31.709c-1.632-1.469-3.386-2.803-5.235-3.998c-3.92-2.535-8.294-4.425-12.975-5.523
				c-3.055-0.717-6.235-1.108-9.508-1.108c-2.751,0-5.436,0.275-8.036,0.786C18.685,25.446,4.742,40.974,3.568,59.962
				c0.706,0.137,1.358,0.425,1.924,0.826c14.872-14.282,33.943-24.22,55.182-27.77c1.277,0.147,2.573,0.235,3.882,0.265
				c0.317,0.008,0.633,0.024,0.952,0.024c1.09,0,2.167-0.056,3.237-0.138c1.627-0.126,3.229-0.34,4.798-0.647
				C73.255,32.248,72.969,31.974,72.673,31.709z"/>
			<path fill="#121332" d="M5.492,60.788c-0.565-0.401-1.218-0.689-1.924-0.826c-0.053,0.859-0.089,1.722-0.089,2.595
				c0,0.068,0.004,0.137,0.005,0.205c0.008,1.602,0.112,3.18,0.297,4.733c0.085,0.71,0.193,1.412,0.313,2.109
				c0.941-0.292,1.763-0.855,2.373-1.601c0.705-0.858,1.129-1.958,1.129-3.155C7.596,63.171,6.764,61.689,5.492,60.788z"/>
		</g>
		<linearGradient id="SVGID_7_" gradientUnits="userSpaceOnUse" x1="74.4307" y1="109.8926" x2="153.6533" y2="109.8926">
			<stop  offset="0" style="stop-color:#41C5EB"/>
			<stop  offset="0.2455" style="stop-color:#35B8E7"/>
			<stop  offset="0.5813" style="stop-color:#2CAEE3"/>
			<stop  offset="1" style="stop-color:#29ABE2"/>
		</linearGradient>
		<path fill="url(#SVGID_7_)" d="M148.755,83.314c-6.531-6.532-17.12-6.532-23.651,0c-5.933,5.933-6.475,15.21-1.632,21.757
			l-40.753,18.141c-0.663,0.151-1.323,0.366-1.97,0.654c-0.646,0.286-1.246,0.635-1.804,1.026c-2.941,2.069-4.604,5.475-4.511,8.987
			c0.035,1.356,0.329,2.73,0.915,4.049c0.588,1.317,1.412,2.455,2.396,3.39l0.023,0.052l0.017-0.008l17.946-7.989l47.974-22.943
			c0.332-0.147,0.662-0.303,0.987-0.472l0.014-0.007l0,0c1.456-0.766,2.823-1.761,4.048-2.985
			C155.286,100.434,155.286,89.846,148.755,83.314z"/>
		<circle fill="#F6F6F6" cx="28.167" cy="46.006" r="4.65"/>
		<circle fill="#121332" cx="27.343" cy="47.926" r="1.878"/>
		<linearGradient id="SVGID_8_" gradientUnits="userSpaceOnUse" x1="160.1924" y1="82.5269" x2="168.25" y2="82.5269">
			<stop  offset="0" style="stop-color:#45C480"/>
			<stop  offset="0.0901" style="stop-color:#37BF86"/>
			<stop  offset="0.2908" style="stop-color:#1FB590"/>
			<stop  offset="0.5022" style="stop-color:#0EAE97"/>
			<stop  offset="0.7293" style="stop-color:#03AA9C"/>
			<stop  offset="1" style="stop-color:#00A99D"/>
		</linearGradient>
		<circle fill="url(#SVGID_8_)" cx="164.221" cy="82.526" r="4.029"/>
		<linearGradient id="SVGID_9_" gradientUnits="userSpaceOnUse" x1="60.6289" y1="28.0957" x2="128.0742" y2="28.0957">
			<stop  offset="0" style="stop-color:#7B0CB1"/>
			<stop  offset="0.0503" style="stop-color:#7C0FB5"/>
			<stop  offset="0.3247" style="stop-color:#801BC6"/>
			<stop  offset="0.6254" style="stop-color:#8223D0"/>
			<stop  offset="1" style="stop-color:#8325D3"/>
		</linearGradient>
		<path fill="url(#SVGID_9_)" d="M128.074,23.117C106.349,8.17,76.907,12.704,60.629,33.073
			C82.353,48.021,111.796,43.486,128.074,23.117z"/>
	</g>
</g>
</svg>
